<?xml version="1.0" encoding="UTF-8" standalone="no"?>
<!-- Created with Inkscape (http://www.inkscape.org/) -->

<svg
   xmlns:dc="http://purl.org/dc/elements/1.1/"
   xmlns:cc="http://creativecommons.org/ns#"
   xmlns:rdf="http://www.w3.org/1999/02/22-rdf-syntax-ns#"
   xmlns:svg="http://www.w3.org/2000/svg"
   xmlns="http://www.w3.org/2000/svg"
   xmlns:sodipodi="http://sodipodi.sourceforge.net/DTD/sodipodi-0.dtd"
   xmlns:inkscape="http://www.inkscape.org/namespaces/inkscape"
   width="190.61687"
   height="77.30127"
   viewBox="0 0 50.434045 20.452628"
   version="1.1"
   id="svg8"
   inkscape:version="0.92.3 (2405546, 2018-03-11)"
   sodipodi:docname="sorbonne.svg">
  <defs
     id="defs2" />
  <sodipodi:namedview
     id="base"
     pagecolor="#00ffff"
     bordercolor="#666666"
     borderopacity="1.0"
     inkscape:pageopacity="0"
     inkscape:pageshadow="2"
     inkscape:zoom="0.7"
     inkscape:cx="67.843205"
     inkscape:cy="128.48508"
     inkscape:document-units="mm"
     inkscape:current-layer="layer1"
     showgrid="false"
     units="px"
     fit-margin-left="0.5"
     fit-margin-top="0.5"
     fit-margin-right="0.5"
     fit-margin-bottom="0.5"
     inkscape:window-width="1920"
     inkscape:window-height="1001"
     inkscape:window-x="-9"
     inkscape:window-y="-9"
     inkscape:window-maximized="1" />
  <metadata
     id="metadata5">
    <rdf:RDF>
      <cc:Work
         rdf:about="">
        <dc:format>image/svg+xml</dc:format>
        <dc:type
           rdf:resource="http://purl.org/dc/dcmitype/StillImage" />
        <dc:title></dc:title>
      </cc:Work>
    </rdf:RDF>
  </metadata>
  <g
     inkscape:label="Layer 1"
     inkscape:groupmode="layer"
     id="layer1"
     transform="translate(-65.497266,-158.26178)">
    <g
       id="g62"
       transform="matrix(0.26458333,0,0,0.26458333,65.501728,158.28824)">
	<path
   id="path12"
   d="m 22.2,24.2 h 2.6 v -5.6 c 0,-0.7 -0.6,-1.3 -1.3,-1.3 -0.7,0 -1.3,0.6 -1.3,1.3 z"
   class="st0"
   inkscape:connector-curvature="0"
   style="fill:#263068" />

	<path
   id="path14"
   d="m 16.8,24.2 h 2.6 v -5.6 c 0,-0.7 -0.6,-1.3 -1.3,-1.3 -0.7,0 -1.3,0.6 -1.3,1.3 z"
   class="st0"
   inkscape:connector-curvature="0"
   style="fill:#263068" />

	<path
   id="path16"
   d="m 27.6,24.2 h 2.6 v -5.6 c 0,-0.7 -0.6,-1.3 -1.3,-1.3 -0.7,0 -1.3,0.6 -1.3,1.3 z"
   class="st0"
   inkscape:connector-curvature="0"
   style="fill:#263068" />

	<path
   id="path18"
   d="m 24.1,3.6 c 1.7,0.3 2.3,1.8 2.3,2.8 V 8.6 H 28 v 1.2 c 4.1,1.9 7,6.2 7,10.6 0,0 0,0.1 0,0.1 v 3.8 h 9.4 V 20.5 C 44.2,8.1 35.4,0.6 23.8,0.4 Z"
   class="st0"
   inkscape:connector-curvature="0"
   style="fill:#263068" />

	<path
   id="path20"
   d="m 22.4,6.4 v 2.2 h 2.3 V 6.4 C 24.7,5.8 24.2,5.3 23.6,5.3 22.9,5.2 22.4,5.8 22.4,6.4"
   class="st0"
   inkscape:connector-curvature="0"
   style="fill:#263068" />

	<path
   id="path22"
   d="M 25.2,30.3 C 15.5,27.8 11.8,25.7 11.8,19.5 c 0,-4.4 3,-8.2 7.1,-9.9 v -1 h 1.6 V 6.5 c 0,-1.1 0.7,-2.6 2.4,-2.8 l 0.3,-3.2 c -11.7,0 -21.6,8.1 -21.1,19 0.5,12.2 14,15.7 21.2,17.2 5.7,1.2 19.4,4.4 22.8,14.1 -0.1,0 1.2,-16 -20.9,-20.5"
   class="st0"
   inkscape:connector-curvature="0"
   style="fill:#263068" />

	<path
   id="path24"
   d="m 22,47.3 c 9.8,3 12.3,6.6 12.3,11.8 0,7.9 -6.1,11.1 -13.8,11.1 -7.3,0 -13.6,-3.4 -17.8,-7.8 0,0 -1.6,3.2 -1.6,3.2 3.1,5.8 11.8,11.1 21.4,11.1 v 0 c 0,0 0,0 0,0 v 0 C 35,76.8 45.6,71 45.6,59.3 45.6,46.8 31.9,41.8 24.3,40.2 18.3,38.9 3.3,34.9 0.6,26.5 c 0,0 -3,14.6 21.4,20.8"
   class="st0"
   inkscape:connector-curvature="0"
   style="fill:#263068" />

	<path
   id="path26"
   d="m 59.7,31.3 c 0,0 1.7,1.6 3.9,1.6 1.2,0 2.2,-0.6 2.2,-1.8 0,-2.7 -7.3,-2.2 -7.3,-6.8 0,-2.5 2.2,-4.3 5.2,-4.3 3,0 4.6,1.6 4.6,1.6 l -1.2,2.2 c 0,0 -1.5,-1.3 -3.4,-1.3 -1.3,0 -2.3,0.7 -2.3,1.8 0,2.6 7.3,2 7.3,6.7 0,2.4 -1.9,4.3 -5.1,4.3 -3.4,0 -5.3,-2 -5.3,-2 z"
   class="st1"
   inkscape:connector-curvature="0"
   style="fill:#e6332a" />

	<path
   id="path28"
   d="m 80.5,32.9 c 2.8,0 5.1,-2.3 5.1,-5.3 0,-2.9 -2.3,-5.1 -5.1,-5.1 -2.8,0 -5.1,2.2 -5.1,5.1 0,3.1 2.2,5.3 5.1,5.3 m 0,-12.8 c 4.5,0 8,3.3 8,7.6 0,4.4 -3.4,7.8 -8,7.8 -4.5,0 -8,-3.4 -8,-7.8 0,-4.3 3.4,-7.6 8,-7.6"
   class="st1"
   inkscape:connector-curvature="0"
   style="fill:#e6332a" />

	<path
   id="path30"
   d="m 98.3,27.3 c 1.5,0 2.4,-0.9 2.4,-2.3 0,-1.4 -0.6,-2.3 -2.8,-2.3 h -2.1 v 4.6 z m -5.3,-7 h 5 c 1.7,0 2.4,0.1 3.1,0.4 1.5,0.7 2.5,2.1 2.5,4.1 0,1.8 -1,3.4 -2.6,4.1 v 0 c 0,0 0.2,0.2 0.5,0.7 l 3.2,5.5 h -3.1 l -3.1,-5.5 h -2.7 v 5.5 H 93 Z"
   class="st1"
   inkscape:connector-curvature="0"
   style="fill:#e6332a" />

	<path
   id="path32"
   d="m 114.5,32.8 c 1.4,0 2.2,-0.9 2.2,-2.2 0,-1.2 -0.8,-2.1 -2.2,-2.1 h -3 v 4.3 z m -0.3,-6.4 c 1.2,0 1.9,-0.8 1.9,-1.9 0,-1.1 -0.7,-1.8 -2,-1.8 h -2.7 v 3.7 z m -5.5,-6.1 h 5.5 c 2.8,0 4.8,1.4 4.8,3.8 0,1.4 -0.7,2.6 -1.9,3.2 v 0 c 1.7,0.5 2.5,2 2.5,3.5 0,3 -2.5,4.3 -5.3,4.3 h -5.6 z"
   class="st1"
   inkscape:connector-curvature="0"
   style="fill:#e6332a" />

	<path
   id="path34"
   d="m 131.2,32.9 c 2.8,0 5.1,-2.3 5.1,-5.3 0,-2.9 -2.3,-5.1 -5.1,-5.1 -2.8,0 -5.1,2.2 -5.1,5.1 0,3.1 2.3,5.3 5.1,5.3 m 0,-12.8 c 4.5,0 8,3.3 8,7.6 0,4.4 -3.4,7.8 -8,7.8 -4.5,0 -8,-3.4 -8,-7.8 0,-4.3 3.5,-7.6 8,-7.6"
   class="st1"
   inkscape:connector-curvature="0"
   style="fill:#e6332a" />

	<path
   id="path36"
   d="m 144,20.3 h 2.8 l 5.9,8.6 c 0.6,0.9 1.3,2.3 1.3,2.3 v 0 c 0,0 -0.2,-1.4 -0.2,-2.3 v -8.6 h 2.8 v 14.8 h -2.8 l -5.9,-8.5 c -0.6,-0.9 -1.3,-2.3 -1.3,-2.3 v 0 c 0,0 0.2,1.4 0.2,2.3 v 8.5 H 144 Z"
   class="st1"
   inkscape:connector-curvature="0"
   style="fill:#e6332a" />

	<path
   id="path38"
   d="m 162.2,20.3 h 2.8 l 5.9,8.6 c 0.6,0.9 1.3,2.3 1.3,2.3 v 0 c 0,0 -0.2,-1.4 -0.2,-2.3 v -8.6 h 2.8 V 35.1 H 172 l -5.9,-8.5 c -0.6,-0.9 -1.3,-2.3 -1.3,-2.3 v 0 c 0,0 0.2,1.4 0.2,2.3 v 8.5 h -2.8 z"
   class="st1"
   inkscape:connector-curvature="0"
   style="fill:#e6332a" />

	<polygon
   id="polygon40"
   points="188.4,28.8 188.4,26.5 183.2,26.5 183.2,22.6 189.7,22.6 189.7,20.3 180.4,20.3 180.4,35.2 190,35.2 190,32.8 183.2,32.8 183.2,28.8 "
   class="st1"
   style="fill:#e6332a" />

	<path
   id="path42"
   d="m 58.4,41.7 h 2.8 v 9.6 c 0,2 1.4,3.1 3.5,3.1 2.1,0 3.5,-1.1 3.5,-3.2 V 41.6 H 71 v 9.6 c 0,3.4 -2.5,5.6 -6.3,5.6 -3.8,0 -6.3,-2.3 -6.3,-5.6 z"
   class="st1"
   inkscape:connector-curvature="0"
   style="fill:#e6332a" />

	<path
   id="path44"
   d="m 75.7,41.8 h 2.8 l 5.9,8.6 c 0.6,0.9 1.3,2.3 1.3,2.3 v 0 c 0,0 -0.2,-1.4 -0.2,-2.3 v -8.6 h 2.8 V 56.6 H 85.5 L 79.6,48.1 C 79,47.2 78.3,45.8 78.3,45.8 v 0 c 0,0 0.2,1.4 0.2,2.3 v 8.5 h -2.8 z"
   class="st1"
   inkscape:connector-curvature="0"
   style="fill:#e6332a" />

	<rect
   id="rect46"
   height="14.8"
   width="2.8"
   class="st1"
   y="41.799999"
   x="93.300003"
   style="fill:#e6332a" />

	<path
   id="path48"
   d="m 99.2,41.8 h 3 l 3.4,9.7 c 0.3,0.9 0.6,2.2 0.6,2.2 h 0.1 c 0,0 0.3,-1.3 0.6,-2.2 l 3.4,-9.7 h 3 l -5.6,14.8 h -2.8 z"
   class="st1"
   inkscape:connector-curvature="0"
   style="fill:#e6332a" />

	<polygon
   id="polygon50"
   points="124.3,50.3 119.1,50.3 119.1,54.3 125.9,54.3 125.9,56.7 116.3,56.7 116.3,41.8 125.5,41.8 125.5,44.1 119.1,44.1 119.1,48 124.3,48 "
   class="st1"
   style="fill:#e6332a" />

	<path
   id="path52"
   d="m 135.2,48.8 c 1.5,0 2.4,-0.9 2.4,-2.3 0,-1.4 -0.6,-2.3 -2.8,-2.3 h -2.1 v 4.6 z m -5.3,-7 h 5 c 1.7,0 2.4,0.1 3.1,0.4 1.5,0.7 2.5,2.1 2.5,4.1 0,1.8 -1,3.4 -2.6,4.1 v 0 c 0,0 0.2,0.2 0.5,0.7 l 3.2,5.5 h -3.1 l -3.1,-5.5 h -2.7 v 5.5 h -2.8 z"
   class="st1"
   inkscape:connector-curvature="0"
   style="fill:#e6332a" />

	<path
   id="path54"
   d="m 145.6,52.9 c 0,0 1.7,1.6 3.9,1.6 1.2,0 2.2,-0.6 2.2,-1.8 0,-2.7 -7.3,-2.2 -7.3,-6.8 0,-2.5 2.2,-4.3 5.2,-4.3 3,0 4.6,1.6 4.6,1.6 l -1.2,2.2 c 0,0 -1.5,-1.3 -3.4,-1.3 -1.3,0 -2.3,0.7 -2.3,1.8 0,2.6 7.3,2 7.3,6.7 0,2.4 -1.9,4.3 -5.1,4.3 -3.4,0 -5.3,-2 -5.3,-2 z"
   class="st1"
   inkscape:connector-curvature="0"
   style="fill:#e6332a" />

	<rect
   id="rect56"
   height="14.8"
   width="2.8"
   class="st1"
   y="41.799999"
   x="158.39999"
   style="fill:#e6332a" />

	<polygon
   id="polygon58"
   points="172.2,56.7 169.4,56.7 169.4,44.1 164.4,44.1 164.4,41.8 177.3,41.8 177.3,44.1 172.2,44.1 "
   class="st1"
   style="fill:#e6332a" />

	<path
   id="path60"
   d="m 180.5,41.8 v 14.8 h 9.6 v -2.3 h -6.8 v -4 h 5.2 V 48 h -5.2 v -3.9 h 6.4 v -2.3 z m 5.3,-3.8 -1.7,2.8 h 2.2 l 2.3,-2.8 z"
   class="st1"
   inkscape:connector-curvature="0"
   style="fill:#e6332a" />

</g>
  </g>
  <style
     id="style10"
     type="text/css">
	.st0{fill:#263068;}
	.st1{fill:#E6332A;}
</style>
</svg>
