<svg xmlns="http://www.w3.org/2000/svg" xmlns:xlink="http://www.w3.org/1999/xlink" width="2245" zoomAndPan="magnify" viewBox="0 0 1683.75 1190.250009" height="1587" preserveAspectRatio="xMidYMid meet" version="1.0"><defs><g/><clipPath id="a30bda0388"><path d="M 0.40625 0 L 1683.09375 0 L 1683.09375 1189.5 L 0.40625 1189.5 Z M 0.40625 0 " clip-rule="nonzero"/></clipPath><clipPath id="0446e1aa1b"><path d="M 0.40625 0 L 1682.667969 0 L 1682.667969 1189.199219 L 0.40625 1189.199219 Z M 0.40625 0 " clip-rule="nonzero"/></clipPath><clipPath id="a93c12d55f"><path d="M 1207 459.503906 L 1518 459.503906 L 1518 782 L 1207 782 Z M 1207 459.503906 " clip-rule="nonzero"/></clipPath><clipPath id="1aff9d90fe"><path d="M 1391 606 L 1670.472656 606 L 1670.472656 845 L 1391 845 Z M 1391 606 " clip-rule="nonzero"/></clipPath><clipPath id="1113330c4b"><path d="M 1019.296875 670 L 1083 670 L 1083 754 L 1019.296875 754 Z M 1019.296875 670 " clip-rule="nonzero"/></clipPath><clipPath id="0bb0d93bd3"><rect x="0" width="925" y="0" height="833"/></clipPath><clipPath id="cd05105ed9"><rect x="0" width="603" y="0" height="187"/></clipPath><clipPath id="286da0e39f"><path d="M 59.667969 107 L 596.941406 107 L 596.941406 624 L 59.667969 624 Z M 59.667969 107 " clip-rule="nonzero"/></clipPath><clipPath id="4a656bef35"><path d="M 75.339844 1142.34375 L 1607.734375 1142.34375 L 1607.734375 1148.339844 L 75.339844 1148.339844 Z M 75.339844 1142.34375 " clip-rule="nonzero"/></clipPath><clipPath id="e1fe923a70"><path d="M 0.339844 0.34375 L 1532.734375 0.34375 L 1532.734375 6.339844 L 0.339844 6.339844 Z M 0.339844 0.34375 " clip-rule="nonzero"/></clipPath><clipPath id="a5992646e1"><rect x="0" width="1533" y="0" height="7"/></clipPath><clipPath id="0f0683dce0"><rect x="0" width="1684" y="0" height="1190"/></clipPath></defs><g clip-path="url(#a30bda0388)"><path fill="#ffffff" d="M 0.40625 0 L 1683.09375 0 L 1683.09375 1189.5 L 0.40625 1189.5 Z M 0.40625 0 " fill-opacity="1" fill-rule="nonzero"/><g transform="matrix(1, 0, 0, 1, 0, 0.00000000000002896)"><g clip-path="url(#0f0683dce0)"><g clip-path="url(#0446e1aa1b)"><path fill="#1a2332" d="M 0.40625 0 L 1682.667969 0 L 1682.667969 1189.199219 L 0.40625 1189.199219 Z M 0.40625 0 " fill-opacity="1" fill-rule="nonzero"/></g><g clip-path="url(#a93c12d55f)"><path fill="#16a085" d="M 1332.492188 771.789062 C 1332.683594 771.988281 1332.878906 772.292969 1332.992188 772.429688 C 1332.828125 772.222656 1332.65625 772.007812 1332.492188 771.789062 Z M 1406.101562 471.558594 C 1404.78125 471.75 1402.777344 472.085938 1400.914062 472.59375 C 1382.71875 477.515625 1344.480469 494.585938 1296.578125 509.347656 C 1273.203125 516.542969 1247.550781 523.148438 1220.847656 527.671875 C 1221.753906 530.519531 1223.390625 534.488281 1224.617188 538.375 C 1235.085938 571.664062 1264.460938 643.097656 1292.277344 700.296875 C 1307.210938 731.007812 1321.589844 757.628906 1332.492188 771.792969 C 1332.3125 771.59375 1332.128906 771.480469 1332.042969 771.695312 C 1331.335938 773.542969 1337.558594 771.636719 1342.617188 770.460938 C 1356.0625 767.363281 1377.0625 759.726562 1399.503906 750.75 C 1448.480469 731.164062 1504.179688 705.234375 1504.179688 705.234375 C 1505.6875 704.511719 1507.492188 705.148438 1508.21875 706.660156 C 1508.941406 708.160156 1508.304688 709.972656 1506.800781 710.691406 C 1506.800781 710.691406 1419.03125 753.984375 1367.191406 772.964844 C 1351.230469 778.808594 1338.4375 782.234375 1332.199219 781.933594 C 1328.597656 781.761719 1326.292969 780.378906 1325.007812 778.800781 C 1301.730469 750.09375 1261.472656 666.980469 1234.742188 603.273438 C 1221.328125 571.328125 1211.359375 544.207031 1208.269531 531.269531 C 1206.863281 525.382812 1207.121094 521.371094 1207.761719 519.722656 C 1208.976562 516.597656 1211.214844 515.234375 1213.714844 514.851562 C 1245.367188 510.019531 1275.613281 501.984375 1302.445312 493.621094 C 1340.035156 481.898438 1370.980469 469.453125 1389.675781 463.496094 C 1397.847656 460.890625 1403.96875 459.542969 1407.601562 459.648438 C 1413.039062 459.8125 1415.636719 462.460938 1416.492188 465.722656 C 1419.316406 476.519531 1430.527344 503.527344 1444.40625 535.421875 C 1474.597656 604.773438 1517.53125 696.84375 1517.53125 696.84375 C 1518.253906 698.347656 1517.617188 700.160156 1516.113281 700.886719 C 1514.613281 701.609375 1512.800781 700.972656 1512.074219 699.46875 C 1512.074219 699.46875 1466.839844 608.355469 1435.128906 539.574219 C 1421.351562 509.691406 1410.164062 483.960938 1406.101562 471.558594 Z M 1215.867188 528.480469 C 1215.855469 528.492188 1215.847656 528.492188 1215.839844 528.492188 C 1215.847656 528.492188 1215.855469 528.492188 1215.867188 528.480469 Z M 1220.3125 525.730469 C 1221.199219 524.777344 1222.078125 523.597656 1220.914062 523.554688 C 1220.128906 523.527344 1220.015625 524.347656 1220.3125 525.730469 Z M 1220.3125 525.730469 " fill-opacity="1" fill-rule="evenodd"/></g><path fill="#16a085" d="M 1332.320312 709.394531 C 1330.722656 709.871094 1329.03125 708.953125 1328.554688 707.359375 C 1328.074219 705.761719 1328.988281 704.070312 1330.585938 703.59375 C 1330.585938 703.59375 1347.355469 696.820312 1369.21875 688.5 C 1374.171875 686.617188 1379.394531 684.710938 1384.753906 682.808594 C 1388.179688 681.59375 1391.660156 680.351562 1395.171875 679.238281 C 1404.089844 676.40625 1413.109375 673.832031 1421.542969 671.363281 C 1438.960938 666.265625 1453.839844 662.058594 1460.3125 658.789062 C 1461.746094 657.933594 1463.601562 658.410156 1464.457031 659.84375 C 1465.3125 661.277344 1464.835938 663.140625 1463.402344 663.984375 C 1457.230469 668.265625 1442.835938 675.335938 1425.453125 682.492188 C 1417.242188 685.867188 1408.421875 689.300781 1399.488281 692.347656 C 1395.976562 693.546875 1392.417969 694.601562 1388.898438 695.628906 C 1383.417969 697.234375 1378.03125 698.71875 1372.871094 700.03125 C 1350.125 705.820312 1332.320312 709.394531 1332.320312 709.394531 Z M 1332.320312 709.394531 " fill-opacity="1" fill-rule="evenodd"/><path fill="#16a085" d="M 1314.179688 676.546875 C 1312.582031 677.023438 1310.890625 676.109375 1310.417969 674.511719 C 1309.933594 672.914062 1310.847656 671.222656 1312.445312 670.75 C 1312.445312 670.75 1321.742188 666.292969 1335.871094 660.425781 C 1338.832031 659.191406 1342 657.964844 1345.367188 656.738281 C 1347.429688 655.980469 1349.558594 655.195312 1351.769531 654.539062 C 1357 652.984375 1362.53125 651.648438 1368.203125 650.335938 C 1376.5 648.410156 1384.949219 646.882812 1393.21875 645.070312 C 1394.796875 644.535156 1396.523438 645.378906 1397.058594 646.960938 C 1397.59375 648.539062 1396.746094 650.257812 1395.167969 650.800781 C 1387.46875 654.425781 1379.726562 658.222656 1371.835938 661.546875 C 1366.441406 663.828125 1361.132812 665.949219 1355.9375 667.703125 C 1353.738281 668.433594 1351.535156 669.023438 1349.40625 669.582031 C 1345.925781 670.507812 1342.601562 671.308594 1339.453125 671.972656 C 1324.433594 675.152344 1314.179688 676.550781 1314.179688 676.550781 Z M 1314.179688 676.546875 " fill-opacity="1" fill-rule="evenodd"/><path fill="#16a085" d="M 1300.070312 646.65625 C 1298.476562 647.132812 1296.78125 646.21875 1296.308594 644.621094 C 1295.824219 643.023438 1296.738281 641.332031 1298.335938 640.859375 C 1298.335938 640.859375 1312.433594 634.910156 1331.730469 627.417969 C 1335.996094 625.761719 1340.507812 624.097656 1345.195312 622.429688 C 1348.148438 621.375 1351.160156 620.296875 1354.242188 619.339844 C 1361.804688 616.992188 1369.605469 614.859375 1377.21875 612.789062 C 1389.984375 609.3125 1402.136719 606.332031 1411.804688 603.390625 C 1413.359375 602.777344 1415.117188 603.542969 1415.730469 605.097656 C 1416.34375 606.644531 1415.578125 608.402344 1414.023438 609.015625 C 1404.839844 613.515625 1393.394531 618.898438 1381 623.957031 C 1373.644531 626.960938 1366.050781 629.914062 1358.496094 632.46875 C 1355.425781 633.503906 1352.335938 634.394531 1349.304688 635.257812 C 1344.496094 636.621094 1339.820312 637.871094 1335.363281 638.949219 C 1315.175781 643.863281 1300.070312 646.65625 1300.070312 646.65625 Z M 1300.070312 646.65625 " fill-opacity="1" fill-rule="evenodd"/><path fill="#16a085" d="M 1286.34375 610.871094 C 1284.75 611.34375 1283.054688 610.429688 1282.582031 608.832031 C 1282.097656 607.234375 1283.011719 605.542969 1284.609375 605.070312 C 1284.609375 605.070312 1298.316406 599.242188 1317.226562 591.871094 C 1321.386719 590.25 1325.796875 588.617188 1330.382812 586.988281 C 1333.273438 585.960938 1336.207031 584.898438 1339.21875 583.964844 C 1346.589844 581.6875 1354.222656 579.625 1361.695312 577.613281 C 1374.023438 574.289062 1385.855469 571.441406 1395.566406 568.585938 C 1397.128906 567.980469 1398.878906 568.757812 1399.476562 570.3125 C 1400.078125 571.875 1399.304688 573.625 1397.742188 574.230469 C 1388.539062 578.675781 1377.40625 583.90625 1365.46875 588.78125 C 1358.253906 591.726562 1350.828125 594.617188 1343.476562 597.101562 C 1340.464844 598.113281 1337.449219 598.976562 1334.480469 599.8125 C 1329.777344 601.152344 1325.210938 602.359375 1320.851562 603.414062 C 1301.0625 608.183594 1286.34375 610.871094 1286.34375 610.871094 Z M 1286.34375 610.871094 " fill-opacity="1" fill-rule="evenodd"/><path fill="#16a085" d="M 1272.128906 583.921875 C 1270.53125 584.394531 1268.839844 583.480469 1268.363281 581.882812 C 1267.882812 580.285156 1268.796875 578.59375 1270.394531 578.121094 C 1270.394531 578.121094 1275.8125 574.890625 1285.167969 570.464844 C 1287.035156 569.585938 1289.035156 568.730469 1291.21875 567.882812 C 1292.53125 567.367188 1293.894531 566.832031 1295.335938 566.425781 C 1298.667969 565.484375 1302.25 564.792969 1306.050781 564.128906 C 1311.332031 563.207031 1316.742188 562.695312 1322.519531 561.894531 C 1324.105469 561.382812 1325.804688 562.257812 1326.316406 563.851562 C 1326.832031 565.441406 1325.953125 567.140625 1324.363281 567.660156 C 1319.195312 570.378906 1314.464844 573.089844 1309.589844 575.375 C 1306.09375 577.015625 1302.726562 578.484375 1299.4375 579.605469 C 1298.011719 580.089844 1296.582031 580.425781 1295.207031 580.746094 C 1292.914062 581.28125 1290.773438 581.710938 1288.726562 582.03125 C 1278.453125 583.628906 1272.128906 583.921875 1272.128906 583.921875 Z M 1272.128906 583.921875 " fill-opacity="1" fill-rule="evenodd"/><g clip-path="url(#1aff9d90fe)"><path fill="#16a085" d="M 1652.136719 739.835938 C 1635.617188 724.800781 1620.320312 709.351562 1606.675781 694.539062 C 1576.40625 661.679688 1554.023438 632.316406 1542.328125 619.765625 C 1540.472656 617.773438 1538.523438 616.011719 1537.511719 615.132812 C 1534.621094 616.789062 1529.519531 619.414062 1523.597656 622.332031 C 1508.164062 629.933594 1487.085938 639.773438 1487.085938 639.773438 C 1485.59375 640.515625 1483.773438 639.902344 1483.039062 638.402344 C 1482.296875 636.910156 1482.910156 635.085938 1484.414062 634.355469 C 1484.414062 634.355469 1504.964844 623.632812 1520 615.40625 C 1526.964844 611.601562 1532.714844 608.355469 1534.449219 607.042969 C 1535.777344 606.042969 1537.855469 605.523438 1540.621094 606.863281 C 1543.164062 608.097656 1547.742188 612.300781 1553.9375 618.9375 C 1565.953125 631.808594 1585.132812 654.179688 1609.324219 679.53125 C 1626.585938 697.613281 1646.371094 717.285156 1668.191406 735.851562 C 1669.746094 737.1875 1670.46875 738.84375 1670.589844 740.71875 C 1670.675781 742.019531 1670.511719 744.265625 1668.242188 746.457031 C 1667.464844 747.207031 1665.4375 748.597656 1662.15625 750.265625 C 1654.140625 754.339844 1636.582031 761.941406 1613.953125 770.972656 C 1589.179688 780.84375 1558.296875 792.480469 1527.429688 803.5625 C 1469.996094 824.191406 1412.617188 842.757812 1394.59375 844.855469 C 1392.945312 845.078125 1391.417969 843.914062 1391.195312 842.257812 C 1390.96875 840.609375 1392.132812 839.082031 1393.792969 838.855469 C 1413.222656 835.878906 1478.371094 811.074219 1539.550781 786.714844 C 1576.699219 771.929688 1612.355469 757.253906 1635.324219 747.304688 C 1642.191406 744.324219 1647.914062 741.8125 1652.136719 739.835938 Z M 1539.4375 613.957031 Z M 1659.152344 746.148438 C 1659.171875 746.164062 1659.195312 746.179688 1659.214844 746.199219 C 1659.195312 746.179688 1659.171875 746.164062 1659.152344 746.148438 Z M 1659.152344 746.148438 " fill-opacity="1" fill-rule="evenodd"/></g><path fill="#16a085" d="M 1116.8125 673.367188 C 1146.082031 703.714844 1175.789062 731.015625 1203.515625 754.699219 C 1217.773438 766.886719 1231.515625 778.101562 1244.433594 788.234375 C 1276.476562 813.351562 1303.570312 831.613281 1321.53125 840.625 C 1327.261719 843.5 1331.941406 845.441406 1335.453125 846.21875 C 1336.265625 846.398438 1337.351562 846.488281 1337.828125 846.519531 C 1342.839844 842.28125 1359.058594 827.273438 1378.722656 809.027344 C 1419.730469 770.972656 1475.496094 718.863281 1475.496094 718.863281 C 1476.695312 717.707031 1478.613281 717.734375 1479.777344 718.933594 C 1480.941406 720.132812 1480.90625 722.046875 1479.707031 723.214844 C 1479.707031 723.214844 1425.832031 777.316406 1385.988281 816.621094 C 1365.730469 836.605469 1349.046875 852.753906 1344.929688 856.285156 C 1342.523438 858.347656 1337.773438 859.484375 1330.871094 857.683594 C 1317.644531 854.246094 1291.984375 840.152344 1259.824219 816.992188 C 1240.171875 802.839844 1217.996094 785.316406 1194.691406 764.886719 C 1165.964844 739.699219 1135.609375 710.015625 1105.671875 677.328125 C 1104.519531 676.0625 1103.894531 674.523438 1104.132812 672.632812 C 1104.289062 671.367188 1105.425781 668.734375 1108.761719 666.082031 C 1114.394531 661.613281 1128.050781 653.65625 1144.875 645.066406 C 1179.5 627.398438 1227.542969 606.957031 1244.894531 607.3125 C 1246.558594 607.320312 1247.914062 608.675781 1247.90625 610.351562 C 1247.894531 612.015625 1246.53125 613.371094 1244.867188 613.363281 C 1236.46875 613.464844 1220.8125 619.09375 1203.109375 626.800781 C 1172.222656 640.25 1135.386719 660.324219 1119.945312 671.011719 C 1118.875 671.753906 1117.765625 672.609375 1116.8125 673.367188 Z M 1337.203125 847.03125 C 1337.203125 847.03125 1337.203125 847.03125 1337.203125 847.039062 Z M 1113.5625 669.984375 C 1113.554688 669.976562 1113.550781 669.964844 1113.542969 669.964844 C 1113.550781 669.964844 1113.554688 669.976562 1113.5625 669.984375 Z M 1113.5625 669.984375 " fill-opacity="1" fill-rule="evenodd"/><path fill="#16a085" d="M 1176.585938 693.488281 C 1175.167969 694.367188 1173.300781 693.9375 1172.417969 692.519531 C 1171.535156 691.105469 1171.972656 689.230469 1173.386719 688.351562 C 1173.386719 688.351562 1180.8125 681.75 1190.988281 673.832031 C 1193.292969 672.039062 1195.753906 670.25 1198.308594 668.464844 C 1199.949219 667.324219 1201.605469 666.167969 1203.339844 665.140625 C 1207.796875 662.492188 1212.386719 660.152344 1216.675781 658.019531 C 1228.207031 652.296875 1237.390625 648.507812 1237.390625 648.507812 C 1238.816406 647.621094 1240.679688 648.058594 1241.5625 649.476562 C 1242.441406 650.890625 1242.007812 652.753906 1240.59375 653.644531 C 1240.59375 653.644531 1233.128906 660.203125 1222.910156 668.03125 C 1219.101562 670.941406 1214.976562 674.03125 1210.636719 676.855469 C 1208.941406 677.957031 1207.171875 678.933594 1205.429688 679.902344 C 1202.703125 681.410156 1200.007812 682.828125 1197.386719 684.09375 C 1185.785156 689.742188 1176.585938 693.484375 1176.585938 693.484375 Z M 1176.585938 693.488281 " fill-opacity="1" fill-rule="evenodd"/><path fill="#16a085" d="M 1199.800781 722.375 C 1198.386719 723.265625 1196.519531 722.824219 1195.636719 721.410156 C 1194.753906 719.992188 1195.1875 718.121094 1196.605469 717.238281 C 1196.605469 717.238281 1204.839844 710.128906 1216.027344 701.589844 C 1218.566406 699.648438 1221.269531 697.710938 1224.078125 695.765625 C 1225.878906 694.527344 1227.695312 693.269531 1229.59375 692.140625 C 1234.457031 689.230469 1239.46875 686.636719 1244.144531 684.265625 C 1256.6875 677.917969 1266.679688 673.617188 1266.679688 673.617188 C 1268.097656 672.730469 1269.96875 673.167969 1270.847656 674.585938 C 1271.738281 676 1271.300781 677.867188 1269.882812 678.753906 C 1269.882812 678.753906 1261.609375 685.824219 1250.375 694.277344 C 1246.1875 697.425781 1241.644531 700.773438 1236.886719 703.855469 C 1235.035156 705.058594 1233.101562 706.136719 1231.199219 707.203125 C 1228.21875 708.867188 1225.28125 710.4375 1222.425781 711.851562 C 1209.820312 718.121094 1199.800781 722.375 1199.800781 722.375 Z M 1199.800781 722.375 " fill-opacity="1" fill-rule="evenodd"/><path fill="#16a085" d="M 1240.589844 750.464844 C 1239.175781 751.351562 1237.308594 750.914062 1236.425781 749.496094 C 1235.542969 748.082031 1235.976562 746.214844 1237.394531 745.328125 C 1237.394531 745.328125 1243.453125 739.589844 1251.9375 732.714844 C 1253.851562 731.164062 1255.894531 729.632812 1258.035156 728.109375 C 1259.40625 727.136719 1260.789062 726.152344 1262.253906 725.292969 C 1266.003906 723.070312 1269.902344 721.171875 1273.546875 719.441406 C 1283.390625 714.777344 1291.207031 711.832031 1291.207031 711.832031 C 1292.628906 710.949219 1294.492188 711.386719 1295.371094 712.800781 C 1296.261719 714.21875 1295.820312 716.082031 1294.40625 716.96875 C 1294.40625 716.96875 1288.308594 722.675781 1279.78125 729.453125 C 1276.617188 731.960938 1273.195312 734.621094 1269.546875 737.003906 C 1268.125 737.941406 1266.628906 738.746094 1265.15625 739.546875 C 1262.839844 740.792969 1260.566406 741.953125 1258.335938 742.980469 C 1248.425781 747.566406 1240.589844 750.464844 1240.589844 750.464844 Z M 1240.589844 750.464844 " fill-opacity="1" fill-rule="evenodd"/><path fill="#16a085" d="M 1266.632812 772.308594 C 1265.21875 773.1875 1263.351562 772.761719 1262.46875 771.335938 C 1261.585938 769.921875 1262.019531 768.050781 1263.4375 767.171875 C 1263.4375 767.171875 1268.039062 762.355469 1274.738281 756.574219 C 1276.234375 755.285156 1277.839844 754.027344 1279.539062 752.777344 C 1280.621094 751.984375 1281.71875 751.175781 1282.890625 750.5 C 1285.910156 748.734375 1289.0625 747.296875 1292.023438 745.992188 C 1300.09375 742.445312 1306.441406 740.402344 1306.441406 740.402344 C 1307.859375 739.515625 1309.726562 739.949219 1310.605469 741.363281 C 1311.496094 742.789062 1311.054688 744.648438 1309.640625 745.539062 C 1309.640625 745.539062 1305.003906 750.324219 1298.257812 756.003906 C 1295.777344 758.085938 1293.101562 760.273438 1290.183594 762.210938 C 1289.054688 762.964844 1287.847656 763.589844 1286.660156 764.210938 C 1284.785156 765.1875 1282.949219 766.070312 1281.132812 766.839844 C 1272.992188 770.304688 1266.632812 772.304688 1266.632812 772.304688 Z M 1266.632812 772.308594 " fill-opacity="1" fill-rule="evenodd"/><path fill="#16a085" d="M 1512.402344 652.910156 C 1511.386719 651.589844 1511.636719 649.683594 1512.964844 648.671875 C 1514.292969 647.65625 1516.191406 647.90625 1517.203125 649.234375 C 1517.203125 649.234375 1526.695312 658.875 1538.625 671.875 C 1541.320312 674.808594 1544.070312 677.933594 1546.851562 681.171875 C 1548.628906 683.242188 1550.433594 685.339844 1552.132812 687.523438 C 1556.433594 693.046875 1560.507812 698.777344 1564.355469 704.164062 C 1572.070312 714.960938 1578.460938 724.449219 1582.472656 728.945312 C 1583.699219 730.082031 1583.765625 732 1582.628906 733.21875 C 1581.488281 734.441406 1579.574219 734.511719 1578.355469 733.371094 C 1573.425781 729.574219 1564.71875 721.597656 1555.265625 711.671875 C 1550.65625 706.839844 1545.859375 701.609375 1541.363281 696.152344 C 1539.582031 694.003906 1537.925781 691.761719 1536.304688 689.550781 C 1533.757812 686.089844 1531.339844 682.671875 1529.113281 679.347656 C 1519.265625 664.632812 1512.402344 652.910156 1512.402344 652.910156 Z M 1512.402344 652.910156 " fill-opacity="1" fill-rule="evenodd"/><path fill="#16a085" d="M 1485.105469 718.355469 C 1484.058594 717.050781 1484.277344 715.144531 1485.578125 714.097656 C 1486.882812 713.054688 1488.789062 713.261719 1489.824219 714.5625 C 1493.988281 718.113281 1498.101562 721.304688 1502.058594 724.878906 C 1503.644531 726.320312 1505.128906 727.789062 1506.5625 729.28125 C 1507.546875 730.300781 1508.503906 731.300781 1509.359375 732.378906 C 1511.65625 735.289062 1513.546875 738.214844 1515.3125 740.941406 C 1518.972656 746.5625 1521.484375 751.230469 1523.644531 754.121094 C 1524.871094 755.261719 1524.9375 757.175781 1523.800781 758.394531 C 1522.660156 759.621094 1520.742188 759.6875 1519.527344 758.550781 C 1516.324219 756.503906 1511.734375 753.320312 1506.40625 748.667969 C 1503.914062 746.484375 1501.28125 744.066406 1498.769531 741.226562 C 1497.84375 740.191406 1497.015625 739.042969 1496.1875 737.867188 C 1494.96875 736.160156 1493.804688 734.398438 1492.691406 732.535156 C 1489.957031 727.933594 1487.667969 723.203125 1485.105469 718.351562 Z M 1485.105469 718.355469 " fill-opacity="1" fill-rule="evenodd"/><path fill="#16a085" d="M 1463.476562 734.367188 C 1462.417969 733.070312 1462.605469 731.164062 1463.902344 730.101562 C 1465.1875 729.050781 1467.09375 729.238281 1468.15625 730.523438 C 1471.359375 732.71875 1474.25 734.410156 1477.117188 736.585938 C 1478.261719 737.457031 1479.300781 738.34375 1480.308594 739.292969 C 1480.992188 739.933594 1481.65625 740.5625 1482.214844 741.269531 C 1483.753906 743.222656 1484.882812 745.207031 1485.960938 747.070312 C 1488.199219 750.929688 1489.433594 754.054688 1490.839844 756.332031 C 1492.066406 757.472656 1492.132812 759.386719 1490.996094 760.605469 C 1489.855469 761.832031 1487.9375 761.898438 1486.722656 760.761719 C 1484.183594 759.441406 1481.015625 757.765625 1477.175781 754.941406 C 1475.378906 753.613281 1473.515625 752.15625 1471.753906 750.273438 C 1471.125 749.601562 1470.589844 748.824219 1470.046875 748.03125 C 1469.261719 746.863281 1468.527344 745.671875 1467.855469 744.371094 C 1466.1875 741.140625 1465.023438 737.964844 1463.476562 734.367188 Z M 1463.476562 734.367188 " fill-opacity="1" fill-rule="evenodd"/><path fill="#16a085" d="M 1438.511719 758.492188 C 1437.449219 757.199219 1437.640625 755.289062 1438.925781 754.230469 C 1440.21875 753.175781 1442.128906 753.355469 1443.1875 754.652344 C 1446.410156 756.878906 1449.324219 758.605469 1452.21875 760.804688 C 1453.382812 761.695312 1454.425781 762.601562 1455.445312 763.558594 C 1456.136719 764.207031 1456.808594 764.84375 1457.378906 765.5625 C 1458.933594 767.527344 1460.082031 769.539062 1461.175781 771.429688 C 1463.4375 775.332031 1464.707031 778.480469 1466.128906 780.777344 C 1467.355469 781.917969 1467.425781 783.832031 1466.285156 785.050781 C 1465.148438 786.277344 1463.230469 786.347656 1462.015625 785.207031 C 1459.457031 783.867188 1456.257812 782.160156 1452.390625 779.292969 C 1450.570312 777.949219 1448.6875 776.464844 1446.910156 774.5625 C 1446.269531 773.882812 1445.726562 773.097656 1445.183594 772.285156 C 1444.386719 771.113281 1443.644531 769.910156 1442.957031 768.589844 C 1441.265625 765.328125 1440.082031 762.117188 1438.511719 758.492188 Z M 1438.511719 758.492188 " fill-opacity="1" fill-rule="evenodd"/><path fill="#16a085" d="M 1091.539062 729.089844 C 1106.109375 739.320312 1125.964844 749.703125 1147.242188 760.121094 C 1154.492188 763.667969 1161.886719 767.25 1169.304688 770.816406 C 1180.503906 776.203125 1191.730469 781.554688 1202.625 786.59375 C 1211.34375 790.632812 1219.800781 794.507812 1227.800781 798.140625 C 1261.550781 813.472656 1287.089844 824.105469 1287.089844 824.105469 C 1288.664062 824.675781 1289.464844 826.410156 1288.894531 827.980469 C 1288.324219 829.550781 1286.582031 830.363281 1285.019531 829.785156 C 1285.019531 829.785156 1251.246094 819.273438 1209.960938 803.011719 C 1194.226562 796.8125 1177.402344 789.777344 1161.023438 782.113281 C 1152.886719 778.300781 1144.878906 774.285156 1137.164062 770.160156 C 1116.527344 759.144531 1097.917969 747.441406 1084.21875 736.574219 C 1081.625 734.496094 1080.507812 731.777344 1081.226562 728.382812 C 1081.761719 725.847656 1083.617188 722.515625 1086.785156 719.0625 C 1098.015625 706.804688 1125.546875 689.578125 1125.546875 689.578125 C 1126.933594 688.636719 1128.816406 689.007812 1129.75 690.386719 C 1130.683594 691.769531 1130.316406 693.652344 1128.933594 694.589844 C 1128.933594 694.589844 1097.078125 717.542969 1091.539062 729.089844 Z M 1090.445312 728.324219 C 1090.445312 728.316406 1090.441406 728.316406 1090.4375 728.316406 C 1090.441406 728.316406 1090.445312 728.316406 1090.445312 728.324219 Z M 1090.445312 728.324219 " fill-opacity="1" fill-rule="evenodd"/><path fill="#16a085" d="M 1321.816406 844.578125 C 1323.480469 844.726562 1324.722656 846.183594 1324.578125 847.851562 C 1324.4375 849.515625 1322.972656 850.75 1321.304688 850.613281 C 1307.625 849.914062 1272.695312 845.199219 1231.859375 836.257812 C 1220.464844 833.765625 1208.625 830.890625 1196.679688 827.671875 C 1188.953125 825.589844 1181.175781 823.355469 1173.472656 820.921875 C 1160.507812 816.828125 1147.699219 812.28125 1135.449219 807.421875 C 1115.023438 799.324219 1096.210938 790.277344 1080.75 780.871094 C 1074.152344 776.8125 1073.746094 770.402344 1077.914062 763.324219 C 1084.101562 752.820312 1100.917969 740.632812 1100.917969 740.632812 C 1102.242188 739.613281 1104.144531 739.855469 1105.160156 741.183594 C 1106.179688 742.503906 1105.933594 744.402344 1104.609375 745.421875 C 1104.609375 745.421875 1093.269531 754.847656 1087.144531 763.917969 C 1085.921875 765.730469 1084.941406 767.527344 1084.367188 769.210938 C 1083.839844 770.738281 1083.785156 772.136719 1085.28125 772.921875 C 1100.804688 781.183594 1119.664062 788.613281 1139.839844 795.613281 C 1152.0625 799.859375 1164.78125 803.875 1177.558594 807.765625 C 1185.171875 810.089844 1192.800781 812.402344 1200.363281 814.636719 C 1212.09375 818.097656 1223.660156 821.378906 1234.777344 824.441406 C 1274.523438 835.378906 1308.402344 842.980469 1321.816406 844.578125 Z M 1321.816406 844.578125 " fill-opacity="1" fill-rule="evenodd"/><g clip-path="url(#1113330c4b)"><path fill="#16a085" d="M 1077.601562 671.363281 C 1078.835938 670.242188 1080.75 670.328125 1081.875 671.5625 C 1083 672.796875 1082.910156 674.714844 1081.675781 675.84375 C 1081.675781 675.84375 1074.21875 684.914062 1064.410156 697.320312 C 1060.890625 701.773438 1057.148438 706.667969 1053.15625 711.578125 C 1050.019531 715.4375 1046.683594 719.226562 1043.546875 723.09375 C 1040.320312 727.0625 1037.167969 730.929688 1034.425781 734.847656 C 1030.566406 740.363281 1027.324219 745.613281 1025.566406 750.757812 C 1025.195312 752.378906 1023.570312 753.40625 1021.945312 753.035156 C 1020.316406 752.664062 1019.296875 751.042969 1019.667969 749.410156 C 1020.757812 740.742188 1024.605469 730.800781 1030.203125 720.875 C 1033.410156 715.195312 1037.148438 709.558594 1041.261719 704.335938 C 1042.910156 702.246094 1044.683594 700.28125 1046.453125 698.382812 C 1049.238281 695.394531 1052.035156 692.589844 1054.804688 690.027344 C 1067.160156 678.625 1077.601562 671.363281 1077.601562 671.363281 Z M 1077.601562 671.363281 " fill-opacity="1" fill-rule="evenodd"/></g><path fill="#16a085" d="M 1060.367188 741.011719 C 1061.480469 739.769531 1063.394531 739.65625 1064.636719 740.769531 C 1065.882812 741.882812 1065.988281 743.800781 1064.875 745.042969 C 1064.875 745.042969 1062.652344 750.03125 1059.390625 757.101562 C 1058.285156 759.507812 1057.195312 762.148438 1055.796875 764.800781 C 1054.738281 766.792969 1053.445312 768.710938 1052.285156 770.722656 C 1051.117188 772.742188 1049.859375 774.597656 1048.847656 776.660156 C 1047.523438 779.351562 1046.246094 781.8125 1045.644531 784.589844 C 1045.644531 786.265625 1044.289062 787.621094 1042.617188 787.621094 C 1040.949219 787.621094 1039.59375 786.265625 1039.59375 784.589844 C 1038.816406 780.976562 1038.804688 777.367188 1039.140625 773.472656 C 1039.347656 771.023438 1039.835938 768.667969 1040.492188 766.257812 C 1041.171875 763.765625 1042.074219 761.339844 1043.214844 759.070312 C 1043.832031 757.851562 1044.570312 756.710938 1045.335938 755.632812 C 1046.546875 753.90625 1047.773438 752.328125 1049.085938 750.921875 C 1055.085938 744.5 1060.367188 741.011719 1060.367188 741.011719 Z M 1060.367188 741.011719 " fill-opacity="1" fill-rule="evenodd"/><path fill="#16a085" d="M 1162.042969 591.359375 C 1160.679688 592.328125 1158.789062 592 1157.828125 590.636719 C 1156.867188 589.265625 1157.195312 587.382812 1158.558594 586.414062 C 1158.558594 586.414062 1170.269531 576.214844 1190.410156 565.007812 C 1194.613281 562.671875 1199.207031 560.367188 1204.152344 558.128906 C 1207.183594 556.757812 1210.324219 555.402344 1213.628906 554.203125 C 1221.285156 551.441406 1229.589844 549.109375 1238.339844 547.289062 C 1250.382812 544.777344 1263.183594 543.398438 1276.492188 543.128906 C 1278.148438 542.964844 1279.632812 544.183594 1279.796875 545.847656 C 1279.953125 547.515625 1278.734375 548.988281 1277.078125 549.152344 C 1268.777344 550.648438 1260.84375 552.726562 1253.117188 554.972656 C 1244.988281 557.328125 1237.269531 560.054688 1229.890625 562.773438 C 1225.160156 564.527344 1220.59375 566.304688 1216.183594 567.988281 C 1211.394531 569.816406 1206.792969 571.511719 1202.460938 573.210938 C 1196.445312 575.574219 1190.957031 577.785156 1186.0625 579.898438 C 1171.078125 586.355469 1162.042969 591.363281 1162.042969 591.363281 Z M 1162.042969 591.359375 " fill-opacity="1" fill-rule="evenodd"/><path fill="#16a085" d="M 1110.730469 555.167969 C 1109.210938 555.859375 1107.414062 555.1875 1106.722656 553.667969 C 1106.03125 552.148438 1106.703125 550.351562 1108.226562 549.664062 C 1108.226562 549.664062 1116.496094 544.09375 1128.664062 537.941406 C 1131.339844 536.585938 1134.207031 535.292969 1137.222656 534.03125 C 1139.125 533.238281 1141.074219 532.453125 1143.097656 531.804688 C 1148.074219 530.226562 1153.28125 529.015625 1158.445312 528.09375 C 1167.035156 526.566406 1175.289062 525.988281 1182.402344 526.261719 C 1184.058594 526.117188 1185.527344 527.351562 1185.671875 529.015625 C 1185.8125 530.683594 1184.578125 532.148438 1182.910156 532.289062 C 1176.402344 533.667969 1169.230469 536.542969 1161.601562 539.460938 C 1156.921875 541.246094 1152.222656 543.1875 1147.53125 544.878906 C 1145.605469 545.570312 1143.664062 546.140625 1141.765625 546.710938 C 1138.730469 547.632812 1135.800781 548.480469 1132.996094 549.238281 C 1120.121094 552.71875 1110.730469 555.167969 1110.730469 555.167969 Z M 1110.730469 555.167969 " fill-opacity="1" fill-rule="evenodd"/><g transform="matrix(1, 0, 0, 1, 54, 273)"><g clip-path="url(#0bb0d93bd3)"><g fill="#ecf0f1" fill-opacity="1"><g transform="translate(1.121936, 652.699257)"><g><path d="M 396.28125 -435.28125 L 248.3125 0 L 147.671875 0 L 0 -435.28125 L 93.1875 -435.28125 L 175.0625 -176.25 C 176.457031 -171.882812 178.738281 -163.695312 181.90625 -151.6875 C 185.082031 -139.6875 188.304688 -126.984375 191.578125 -113.578125 C 194.859375 -100.179688 197.09375 -89.117188 198.28125 -80.390625 C 199.476562 -89.117188 201.613281 -100.132812 204.6875 -113.4375 C 207.757812 -126.738281 210.832031 -139.390625 213.90625 -151.390625 C 216.988281 -163.398438 219.226562 -171.6875 220.625 -176.25 L 303.09375 -435.28125 Z M 396.28125 -435.28125 "/></g></g></g><g fill="#ecf0f1" fill-opacity="1"><g transform="translate(354.719372, 652.699257)"><g><path d="M 415.921875 -221.8125 C 415.921875 -172.78125 406.539062 -131.835938 387.78125 -98.984375 C 369.03125 -66.140625 341.890625 -41.429688 306.359375 -24.859375 C 270.828125 -8.285156 228.054688 0 178.046875 0 L 54.78125 0 L 54.78125 -435.28125 L 191.4375 -435.28125 C 237.09375 -435.28125 276.691406 -427.191406 310.234375 -411.015625 C 343.773438 -394.835938 369.773438 -370.921875 388.234375 -339.265625 C 406.691406 -307.609375 415.921875 -268.457031 415.921875 -221.8125 Z M 320.0625 -219.421875 C 320.0625 -251.578125 315.347656 -278.023438 305.921875 -298.765625 C 296.492188 -319.515625 282.597656 -334.847656 264.234375 -344.765625 C 245.867188 -354.691406 223.191406 -359.65625 196.203125 -359.65625 L 147.078125 -359.65625 L 147.078125 -76.21875 L 186.671875 -76.21875 C 231.734375 -76.21875 265.226562 -88.222656 287.15625 -112.234375 C 309.09375 -136.253906 320.0625 -171.984375 320.0625 -219.421875 Z M 320.0625 -219.421875 "/></g></g></g><g fill="#ecf0f1" fill-opacity="1"><g transform="translate(763.397109, 652.699257)"><g><path d="M 9.234375 128.03125 C -2.679688 128.03125 -13.15625 127.382812 -22.1875 126.09375 C -31.21875 124.800781 -38.90625 123.257812 -45.25 121.46875 L -45.25 44.65625 C -38.90625 46.050781 -32.109375 47.390625 -24.859375 48.671875 C -17.617188 49.960938 -9.925781 50.609375 -1.78125 50.609375 C 8.9375 50.609375 18.5625 48.570312 27.09375 44.5 C 35.625 40.4375 42.367188 32.75 47.328125 21.4375 C 52.296875 10.125 54.78125 -6.148438 54.78125 -27.390625 L 54.78125 -435.28125 L 147.078125 -435.28125 L 147.078125 -27.984375 C 147.078125 9.328125 141.269531 39.445312 129.65625 62.375 C 118.050781 85.300781 101.875 101.972656 81.125 112.390625 C 60.382812 122.816406 36.421875 128.03125 9.234375 128.03125 Z M 9.234375 128.03125 "/></g></g></g></g></g><g transform="matrix(1, 0, 0, 1, 1069, 867)"><g clip-path="url(#cd05105ed9)"><path fill="#2c3e50" d="M 1.628906 1.386719 L 601.65625 1.386719 L 601.65625 185.015625 L 1.628906 185.015625 L 1.628906 1.386719 " fill-opacity="1" fill-rule="nonzero"/><g fill="#1abc9c" fill-opacity="1"><g transform="translate(1.630337, 149.133378)"><g/></g></g><g fill="#1abc9c" fill-opacity="1"><g transform="translate(57.847877, 149.133378)"><g/></g></g><g fill="#1abc9c" fill-opacity="1"><g transform="translate(114.065417, 149.133378)"><g/></g></g><g fill="#1abc9c" fill-opacity="1"><g transform="translate(170.286792, 149.133378)"><g><path d="M 62.796875 -116.15625 C 103.429688 -116.15625 123.75 -96.796875 123.75 -58.078125 C 123.75 -19.359375 103.429688 0 62.796875 0 L 12.5 0 L 12.5 -116.15625 Z M 49.796875 -27.859375 L 62.125 -27.859375 C 77.769531 -27.859375 85.59375 -36.242188 85.59375 -53.015625 L 85.59375 -63.140625 C 85.59375 -79.910156 77.769531 -88.296875 62.125 -88.296875 L 49.796875 -88.296875 Z M 49.796875 -27.859375 "/></g></g></g><g fill="#1abc9c" fill-opacity="1"><g transform="translate(301.629901, 149.133378)"><g><path d="M 89.8125 -116.15625 C 95.664062 -116.15625 101.039062 -114.941406 105.9375 -112.515625 C 110.832031 -110.097656 114.710938 -106.691406 117.578125 -102.296875 C 120.453125 -97.910156 121.890625 -93.019531 121.890625 -87.625 C 121.890625 -73.332031 115.421875 -64.328125 102.484375 -60.609375 L 102.484375 -59.9375 C 117.222656 -56.5625 124.59375 -46.878906 124.59375 -30.890625 C 124.59375 -24.816406 123.097656 -19.441406 120.109375 -14.765625 C 117.128906 -10.097656 113.050781 -6.46875 107.875 -3.875 C 102.695312 -1.289062 97.015625 0 90.828125 0 L 12.5 0 L 12.5 -116.15625 Z M 49.796875 -70.90625 L 75.46875 -70.90625 C 77.945312 -70.90625 80 -71.773438 81.625 -73.515625 C 83.257812 -75.265625 84.078125 -77.4375 84.078125 -80.03125 L 84.078125 -81.71875 C 84.078125 -84.1875 83.234375 -86.289062 81.546875 -88.03125 C 79.859375 -89.78125 77.832031 -90.65625 75.46875 -90.65625 L 49.796875 -90.65625 Z M 49.796875 -27.015625 L 78.171875 -27.015625 C 80.640625 -27.015625 82.691406 -27.882812 84.328125 -29.625 C 85.960938 -31.375 86.78125 -33.539062 86.78125 -36.125 L 86.78125 -37.8125 C 86.78125 -40.40625 85.960938 -42.570312 84.328125 -44.3125 C 82.691406 -46.0625 80.640625 -46.9375 78.171875 -46.9375 L 49.796875 -46.9375 Z M 49.796875 -27.015625 "/></g></g></g><g fill="#1abc9c" fill-opacity="1"><g transform="translate(489.217926, 149.133378)"><g/></g></g><g fill="#1abc9c" fill-opacity="1"><g transform="translate(545.435466, 149.133378)"><g/></g></g></g></g><g clip-path="url(#286da0e39f)"><path fill="#ecf0f1" d="M 597.128906 338.597656 C 594.941406 339.328125 595.566406 341.410156 595.152344 342.972656 C 592.753906 351.832031 588.378906 359.332031 580.355469 364.230469 C 572.019531 369.335938 563.371094 369.648438 555.449219 363.605469 C 545.34375 355.789062 524.292969 358.1875 513.457031 368.398438 C 512.101562 369.648438 512.414062 371.316406 512.3125 372.773438 C 511.789062 379.757812 513.144531 386.632812 514.292969 393.511719 C 515.957031 403.203125 515.4375 412.578125 511.269531 421.539062 C 508.875 426.75 508.457031 432.691406 505.121094 437.484375 C 504.390625 438.421875 504.496094 439.359375 505.433594 440.296875 C 512.207031 447.070312 518.980469 453.738281 528.566406 456.65625 C 532.214844 457.800781 535.339844 457.59375 538.882812 455.613281 C 561.597656 442.796875 590.046875 457.488281 591.191406 482.394531 C 591.921875 498.128906 581.605469 511.882812 565.765625 516.257812 C 549.824219 520.636719 532.839844 513.652344 525.234375 499.480469 C 521.066406 491.875 517 484.164062 508.875 479.894531 C 506.894531 478.851562 504.808594 477.914062 502.828125 476.976562 C 498.558594 475.203125 495.742188 475.828125 493.660156 480.832031 C 490.011719 489.480469 483.449219 496.253906 475.320312 500.941406 C 464.378906 507.191406 455.941406 515.839844 448.332031 525.636719 C 446.976562 527.304688 447.5 528.347656 448.230469 529.804688 C 456.042969 545.332031 464.277344 560.125 479.488281 570.441406 C 498.246094 583.257812 498.035156 607.640625 480.21875 619.207031 C 470.945312 625.148438 461.148438 625.773438 451.773438 619.730469 C 442.707031 613.894531 438.226562 604.722656 440.621094 594.617188 C 443.539062 582.320312 438.539062 572.945312 432.808594 563.566406 C 428.429688 556.480469 421.96875 550.957031 415.925781 545.121094 C 414.15625 543.351562 412.800781 543.453125 410.714844 544.914062 C 405.296875 548.664062 400.296875 553.042969 394.148438 555.644531 C 389.355469 557.730469 384.5625 558.5625 379.457031 556.792969 C 376.019531 555.542969 372.890625 556.269531 369.972656 557.9375 C 362.785156 562.003906 355.28125 563.148438 347.46875 560.4375 C 344.238281 559.292969 341.734375 560.542969 339.339844 562.523438 C 332.148438 568.671875 324.542969 569.816406 316.414062 564.605469 C 313.601562 562.835938 313.183594 564.398438 312.976562 566.585938 C 312.558594 571.691406 312.769531 576.484375 314.851562 581.382812 C 319.855469 592.53125 319.75 603.472656 310.996094 612.851562 C 302.140625 622.4375 291.09375 625.980469 278.382812 622.125 C 269.316406 619.3125 263.585938 612.957031 262.648438 603.371094 C 261.710938 593.574219 265.148438 585.550781 273.902344 579.925781 C 280.363281 575.757812 283.070312 568.878906 284.320312 561.480469 C 284.632812 559.5 283.382812 558.875 281.820312 558.25 C 277.339844 556.582031 272.753906 555.855469 268.066406 555.75 C 261.816406 555.75 256.917969 553.457031 253.894531 547.832031 C 252.226562 544.707031 249.519531 543.351562 246.289062 543.039062 C 234.722656 541.996094 226.699219 536.265625 221.175781 526.15625 C 217.945312 520.21875 215.238281 520.113281 210.234375 524.699219 C 203.253906 531.054688 197.316406 538.246094 191.480469 545.644531 C 188.769531 549.082031 187.832031 553.042969 186.894531 557.105469 C 182.621094 577.214844 163.03125 589.71875 143.339844 584.820312 C 127.398438 580.863281 116.457031 564.503906 118.019531 546.996094 C 119.375 532.722656 134.691406 518.96875 150.007812 518.34375 C 151.257812 518.34375 152.40625 518.34375 153.65625 518.550781 C 168.140625 520.738281 182.414062 513.132812 188.980469 499.691406 C 189.605469 498.441406 190.4375 497.398438 188.457031 496.355469 C 180.851562 492.5 177.933594 485.519531 176.578125 477.808594 C 175.851562 473.746094 174.183594 470.929688 170.429688 468.742188 C 164.910156 465.511719 161.78125 460.40625 160.636719 454.050781 C 159.492188 447.695312 158.761719 441.339844 157.199219 435.085938 C 155.636719 428.523438 153.757812 427.6875 147.195312 428.625 C 134.898438 430.5 124.480469 434.566406 115.832031 444.777344 C 101.136719 462.179688 69.667969 453.84375 61.960938 431.335938 C 61.4375 429.875 62.0625 427.6875 59.667969 427.167969 C 59.667969 424.355469 59.667969 421.644531 59.667969 418.832031 C 60.394531 418.726562 60.707031 418.207031 61.019531 417.476562 C 68.316406 396.84375 89.363281 389.132812 107.390625 401.222656 C 121.039062 410.390625 139.796875 403.097656 149.277344 392.988281 C 151.15625 390.90625 150.839844 388.195312 150.113281 386.113281 C 147.820312 379.234375 148.964844 373.191406 152.820312 367.253906 C 153.863281 365.585938 154.90625 363.605469 153.65625 361.625 C 153.34375 361.519531 153.132812 361.417969 153.03125 361.519531 C 144.695312 369.648438 135.109375 374.234375 123.855469 369.023438 C 111.558594 363.292969 104.160156 353.289062 103.117188 339.429688 C 102.804688 335.261719 103.015625 331.09375 103.847656 327.03125 C 107.496094 309.214844 123.230469 299.9375 140.628906 305.460938 C 142.089844 305.984375 143.546875 306.609375 145.007812 307.234375 C 152.613281 310.566406 152.925781 310.671875 155.21875 303.066406 C 156.46875 299 158.65625 295.875 161.886719 293.480469 C 165.742188 290.664062 167.722656 287.226562 167.410156 282.433594 C 166.886719 273.992188 171.265625 268.785156 178.765625 265.554688 C 182.621094 263.886719 186.476562 262.324219 190.019531 260.238281 C 195.75 256.800781 196.480469 253.363281 193.355469 247.527344 C 189.1875 239.710938 183.039062 233.5625 176.371094 228.042969 C 173.765625 225.851562 170.742188 223.769531 166.992188 224.1875 C 149.070312 226.164062 130 211.160156 132.398438 186.257812 C 133.648438 173.023438 140.109375 162.601562 151.46875 155.621094 C 162.511719 148.847656 174.183594 148.015625 185.539062 154.789062 C 197.417969 161.875 202.210938 173.230469 201.273438 186.671875 C 200.859375 192.40625 202.003906 197.300781 204.714844 201.992188 C 208.882812 209.285156 214.195312 215.746094 219.09375 222.414062 C 220.96875 225.019531 222.636719 225.332031 225.34375 222.933594 C 231.179688 217.515625 237.433594 213.035156 246.183594 213.871094 C 248.476562 214.078125 250.351562 212.410156 252.226562 211.054688 C 263.066406 202.824219 275.359375 198.550781 289.011719 198.65625 C 291.40625 198.65625 292.449219 198.03125 292.449219 195.53125 C 292.65625 189.382812 292.136719 183.445312 290.679688 177.503906 C 290.054688 175.109375 288.28125 174.378906 286.40625 173.441406 C 273.796875 166.980469 265.773438 156.558594 264.210938 142.597656 C 261.710938 121.234375 283.695312 103.105469 304.953125 108.210938 C 309.328125 109.253906 313.601562 110.921875 317.667969 112.796875 C 335.902344 121.445312 341.109375 138.949219 330.171875 156.039062 C 328.085938 159.269531 326.941406 162.394531 326.835938 166.144531 C 326.628906 175.210938 326.730469 184.171875 328.605469 193.03125 C 329.128906 195.738281 329.542969 197.40625 333.191406 195.636719 C 341.945312 191.363281 350.90625 191.46875 359.660156 196.46875 C 366.222656 200.21875 373.621094 198.65625 380.601562 199.179688 C 391.648438 200.011719 401.859375 202.511719 410.402344 209.804688 C 413.007812 211.996094 415.09375 211.265625 416.34375 208.867188 C 420.617188 200.949219 425.722656 193.445312 421.242188 183.339844 C 415.71875 170.730469 417.28125 158.121094 424.886719 146.558594 C 436.765625 128.632812 460.941406 126.445312 475.632812 142.179688 C 486.15625 153.328125 489.074219 166.773438 484.492188 181.359375 C 480.21875 195.007812 470.945312 203.660156 456.355469 205.847656 C 450.625 206.785156 440.519531 217.828125 439.894531 223.457031 C 439.683594 225.019531 440.621094 225.644531 441.558594 226.375 C 450.832031 233.5625 458.230469 242.628906 464.796875 252.214844 C 469.484375 258.988281 475.632812 263.78125 482.199219 268.367188 C 485.011719 270.347656 486.679688 268.679688 488.761719 267.742188 C 500.015625 262.84375 510.851562 263.261719 520.753906 270.761719 C 530.339844 278.058594 533.570312 288.371094 531.589844 299.9375 C 529.714844 311.609375 523.148438 320.363281 512.414062 325.574219 C 509.1875 327.136719 508.039062 328.800781 508.5625 332.242188 C 509.082031 335.886719 512 335.367188 514.082031 335.574219 C 520.648438 336.304688 527.316406 336.097656 533.671875 333.910156 C 539.195312 332.03125 543.363281 329.429688 544.925781 322.65625 C 548.261719 308.378906 561.496094 299 574 301.191406 C 585.878906 303.167969 591.816406 311.609375 595.152344 322.34375 C 595.777344 324.425781 595.152344 326.925781 597.234375 328.386719 C 597.128906 331.617188 597.128906 335.160156 597.128906 338.597656 Z M 533.570312 345.890625 C 527.734375 346.828125 521.898438 347.140625 516.0625 346.933594 C 514.917969 346.933594 513.355469 346.414062 513.144531 348.183594 C 513.042969 349.539062 513.355469 350.996094 513.980469 352.144531 C 514.8125 353.707031 516.167969 352.457031 517.105469 352.039062 C 522.316406 349.644531 527.941406 348.496094 533.464844 347.558594 C 542.632812 346.515625 551.28125 347.351562 559.203125 352.871094 C 565.871094 357.5625 571.183594 357.039062 576.289062 352.558594 C 585.980469 344.121094 587.441406 326.300781 579.207031 316.507812 C 575.976562 312.652344 571.808594 311.402344 567.015625 312.753906 C 562.121094 314.109375 556.179688 320.152344 556.699219 324.113281 C 557.328125 328.800781 554.929688 331.617188 552.324219 334.636719 C 547.53125 340.679688 540.863281 343.808594 533.570312 345.890625 Z M 184.5 335.472656 C 179.078125 335.160156 174.285156 336.511719 169.804688 339.015625 C 161.992188 343.390625 161.054688 345.160156 163.867188 353.601562 C 166.472656 361.417969 166.054688 368.503906 161.574219 375.484375 C 159.492188 378.714844 160.949219 387.15625 163.867188 388.613281 C 176.058594 394.867188 178.246094 412.476562 168.140625 423 C 166.785156 424.355469 166.160156 425.8125 166.886719 427.6875 C 169.804688 434.667969 170.429688 442.171875 171.578125 449.464844 C 172.308594 454.363281 174.183594 457.90625 178.558594 460.199219 C 183.246094 462.699219 186.164062 466.660156 187.101562 471.972656 C 187.519531 474.371094 188.042969 476.765625 188.769531 479.058594 C 190.4375 484.789062 193.042969 486.039062 198.460938 483.851562 C 211.796875 478.433594 228.574219 489.792969 227.011719 503.128906 C 226.28125 509.070312 227.636719 514.902344 230.972656 519.90625 C 231.179688 520.21875 231.386719 520.425781 231.597656 520.738281 C 234.722656 527.617188 240.453125 530.636719 247.644531 531.367188 C 252.332031 531.886719 257.542969 533.035156 260.042969 536.996094 C 263.480469 542.515625 267.960938 544.601562 274.109375 544.390625 C 275.152344 544.390625 276.195312 544.496094 277.132812 544.914062 C 281.613281 546.582031 284.007812 545.019531 286.71875 541.058594 C 290.574219 535.117188 296.722656 532.410156 303.910156 533.972656 C 310.789062 535.429688 314.957031 539.703125 316.101562 547.101562 C 317.351562 554.917969 325.898438 558.148438 332.046875 553.355469 C 337.566406 548.976562 343.507812 546.683594 350.386719 549.1875 C 355.386719 550.957031 359.972656 550.125 364.347656 547.726562 C 370.183594 544.496094 376.226562 543.039062 382.792969 545.644531 C 383.832031 546.058594 385.394531 546.371094 386.332031 545.851562 C 395.085938 541.371094 404.882812 538.558594 407.902344 526.992188 C 410.820312 515.839844 423.21875 507.714844 432.183594 512.300781 C 441.246094 516.882812 444.375 513.339844 448.332031 506.777344 C 450.105469 503.859375 453.023438 501.671875 455.941406 499.792969 C 460.003906 497.085938 463.960938 494.375 468.027344 491.667969 C 477.613281 485.207031 484.59375 476.976562 486.367188 465.097656 C 488.867188 448.007812 494.078125 431.753906 500.953125 415.914062 C 503.664062 409.558594 503.871094 402.890625 502.726562 396.011719 C 501.164062 386.007812 499.183594 375.902344 501.058594 365.585938 C 502.101562 359.855469 503.765625 353.496094 500.851562 348.183594 C 497.097656 341.097656 497.203125 333.492188 495.953125 326.09375 C 495.535156 323.28125 494.492188 320.777344 493.140625 318.277344 C 489.074219 310.566406 485.949219 302.335938 484.90625 293.6875 C 483.96875 285.351562 479.800781 280.035156 473.027344 275.867188 C 467.089844 272.222656 461.773438 267.949219 457.605469 262.113281 C 453.023438 255.757812 448.230469 249.714844 443.121094 243.773438 C 437.914062 237.628906 431.972656 231.792969 424.261719 229.5 C 415.71875 226.894531 408.632812 222.308594 401.441406 217.414062 C 396.648438 214.078125 391.542969 211.996094 385.707031 211.160156 C 373.515625 209.492188 360.804688 211.160156 349.238281 204.699219 C 343.507812 201.574219 335.066406 205.429688 334.441406 210.117188 C 332.773438 223.769531 319.957031 233.355469 302.765625 229.605469 C 294.117188 227.726562 288.90625 222.519531 287.65625 213.871094 C 287.136719 210.429688 285.78125 210.015625 282.96875 210.222656 C 274.839844 210.953125 267.546875 213.765625 260.875 218.453125 C 256.292969 221.582031 251.914062 225.4375 245.976562 225.019531 C 241.390625 224.707031 238.058594 226.789062 234.617188 229.292969 C 232.535156 230.855469 231.597656 232.3125 233.367188 234.917969 C 239.097656 243.460938 236.496094 253.882812 230.242188 260.761719 C 224.199219 267.429688 216.488281 268.992188 206.484375 265.242188 C 204.816406 264.617188 203.148438 263.675781 201.691406 265.242188 C 196.480469 270.761719 189.5 273.054688 182.933594 276.078125 C 180.644531 277.121094 178.765625 278.371094 178.871094 281.390625 C 179.390625 289.832031 176.058594 296.605469 169.390625 301.710938 C 168.453125 302.441406 167.515625 303.378906 166.992188 304.417969 C 166.574219 305.253906 166.367188 306.609375 166.679688 307.335938 C 167.199219 308.585938 168.453125 307.859375 169.390625 307.648438 C 175.015625 306.296875 180.433594 304.730469 185.019531 301.085938 C 189.707031 297.4375 196.480469 297.4375 201.066406 300.980469 C 207.628906 306.085938 210.234375 313.171875 209.507812 321.195312 C 208.570312 330.261719 204.296875 334.011719 195.335938 335.886719 C 191.6875 336.722656 188.042969 334.949219 184.5 335.472656 Z M 189.707031 185.109375 C 189.8125 167.8125 176.265625 157.394531 161.679688 163.125 C 150.945312 167.292969 145.214844 175.941406 143.859375 187.300781 C 142.296875 200.21875 151.15625 213.765625 167.199219 212.410156 C 171.578125 211.996094 175.953125 213.453125 179.496094 215.953125 C 191.582031 224.5 201.691406 234.917969 206.796875 249.195312 C 208.152344 253.050781 210.546875 254.820312 214.300781 255.339844 C 218.15625 255.863281 221.074219 254.714844 223.050781 251.277344 C 226.492188 245.546875 225.449219 239.816406 218.882812 236.378906 C 212.945312 233.148438 208.882812 228.457031 205.234375 223.144531 C 197.316406 211.367188 186.476562 200.636719 189.707031 185.109375 Z M 299.015625 118.632812 C 286.71875 118.632812 277.238281 126.445312 275.464844 136.96875 C 273.902344 146.035156 282.550781 159.164062 293.28125 163.125 C 297.242188 164.582031 299.640625 167.085938 300.785156 171.042969 C 304.640625 184.277344 306.203125 197.511719 300.679688 210.640625 C 299.742188 212.933594 299.847656 215.015625 302.035156 216.578125 C 307.039062 220.226562 316.625 219.078125 320.6875 214.390625 C 322.148438 212.621094 322.875 210.742188 321.730469 208.660156 C 316.9375 199.175781 315.476562 188.863281 315.164062 178.441406 C 314.75 168.230469 313.914062 158.019531 320.582031 148.535156 C 326.105469 140.617188 325.0625 131.863281 319.4375 127.175781 C 313.082031 121.964844 305.578125 119.570312 299.015625 118.632812 Z M 149.695312 574.089844 C 163.03125 574.089844 172.515625 566.796875 175.121094 555.644531 C 176.578125 549.5 178.039062 543.453125 181.996094 538.453125 C 190.125 528.03125 198.667969 518.03125 209.195312 510.007812 C 211.277344 508.445312 213.257812 506.671875 214.195312 504.171875 C 215.863281 500.210938 213.882812 496.878906 209.195312 494.898438 C 205.027344 493.230469 202.941406 494.375 201.585938 498.753906 C 198.667969 508.132812 192.625 515.632812 184.914062 521.46875 C 176.371094 527.929688 166.886719 533.035156 155.636719 530.742188 C 145.632812 528.660156 138.234375 532.828125 132.503906 540.222656 C 127.398438 546.789062 128.4375 554.292969 131.773438 561.378906 C 135.734375 569.714844 142.402344 573.984375 149.695312 574.089844 Z M 474.382812 168.960938 C 474.382812 154.996094 465.839844 144.367188 453.335938 142.910156 C 443.644531 141.761719 433.640625 149.472656 430.828125 160.726562 C 429.472656 166.25 428.015625 172.503906 432.183594 177.085938 C 435.933594 181.253906 436.140625 185.421875 435.203125 190.007812 C 433.433594 198.449219 431.453125 206.886719 426.449219 214.285156 C 425.824219 215.121094 424.472656 216.371094 426.136719 217.308594 C 427.390625 218.039062 428.847656 217.933594 429.578125 216.265625 C 430.097656 215.121094 430.617188 214.078125 431.242188 213.035156 C 436.351562 203.660156 443.644531 196.574219 454.0625 193.863281 C 467.191406 190.738281 474.277344 182.503906 474.382812 168.960938 Z M 555.660156 505.628906 C 572.433594 505.628906 583.792969 490.832031 578.0625 476.453125 C 572.746094 463.117188 554.929688 458.21875 542.53125 466.867188 C 538.777344 469.472656 535.234375 469.992188 530.859375 469.160156 C 520.4375 467.179688 511.789062 462.074219 503.976562 455.195312 C 501.578125 453.007812 500.539062 453.320312 500.121094 456.449219 C 499.910156 458.011719 499.496094 459.46875 499.183594 461.03125 C 498.871094 462.90625 499.078125 464.261719 501.476562 464.679688 C 517.625 467.910156 527.628906 478.539062 534.820312 492.605469 C 539.195312 501.253906 546.175781 505.421875 555.660156 505.628906 Z M 185.644531 324.113281 C 187.9375 324.113281 190.125 324.113281 192.417969 324.113281 C 194.710938 324.113281 197.105469 324.21875 197.835938 321.40625 C 198.773438 317.652344 198.253906 314.109375 195.230469 311.402344 C 192.730469 309.214844 191.167969 311.921875 189.394531 312.859375 C 176.789062 319.839844 163.136719 322.238281 148.863281 321.089844 C 144.589844 320.777344 141.253906 317.863281 137.296875 316.507812 C 129.480469 313.796875 119.375 316.820312 116.976562 323.28125 C 113.226562 333.179688 112.703125 346.101562 123.332031 355.164062 C 131.773438 362.25 142.503906 359.855469 146.257812 349.328125 C 147.089844 346.933594 147.820312 344.328125 149.382812 342.246094 C 158.238281 329.84375 170.015625 323.175781 185.644531 324.113281 Z M 94.78125 441.964844 C 101.035156 442.484375 106.347656 439.152344 110.308594 433.628906 C 113.226562 429.5625 116.976562 426.644531 121.25 424.355469 C 131.253906 419.144531 142.089844 416.957031 153.238281 416.644531 C 160.742188 416.433594 165.011719 409.558594 161.78125 402.890625 C 160.636719 400.386719 159.492188 399.347656 156.78125 401.636719 C 153.445312 404.660156 149.902344 407.578125 146.046875 409.765625 C 131.878906 417.894531 117.394531 421.019531 102.492188 411.640625 C 99.261719 409.660156 95.71875 408.203125 91.863281 407.578125 C 85.195312 406.429688 77.277344 409.765625 73.734375 415.289062 C 70.609375 420.1875 71.234375 426.75 75.503906 432.792969 C 80.195312 439.152344 86.34375 442.066406 94.78125 441.964844 Z M 452.085938 595.867188 C 451.980469 604.621094 455.210938 609.832031 461.460938 611.496094 C 468.445312 613.371094 476.257812 609.621094 479.695312 602.746094 C 483.449219 595.242188 482.09375 587.21875 475.632812 582.738281 C 460.734375 572.214844 449.167969 558.980469 441.457031 542.414062 C 438.746094 536.683594 436.351562 530.636719 432.285156 525.53125 C 429.578125 522.09375 425.617188 522.300781 421.96875 525.84375 C 418.21875 529.492188 418.324219 531.574219 421.96875 535.117188 C 429.472656 542.308594 437.703125 549.082031 443.019531 558.042969 C 449.894531 569.921875 457.085938 582.113281 452.085938 595.867188 Z M 286.824219 611.808594 C 301.410156 611.914062 310.269531 599.722656 304.433594 587.011719 C 300.679688 578.675781 300.367188 570.339844 302.035156 561.585938 C 302.765625 557.835938 303.703125 554.1875 304.328125 550.4375 C 304.640625 548.769531 304.433594 546.789062 302.347656 546.058594 C 300.679688 545.433594 298.910156 545.644531 297.347656 546.683594 C 294.742188 548.457031 294.949219 550.75 295.261719 553.5625 C 297.035156 568.359375 291.617188 580.445312 280.152344 589.617188 C 275.152344 593.574219 272.546875 598.160156 274.007812 603.785156 C 275.464844 608.789062 280.257812 611.707031 286.824219 611.808594 Z M 520.125 294.105469 C 520.023438 282.121094 510.539062 274.203125 498.660156 276.179688 C 494.597656 276.808594 491.472656 277.847656 494.492188 283.164062 C 495.742188 285.351562 495.953125 288.164062 496.367188 290.664062 C 497.621094 298.375 500.121094 305.671875 503.351562 312.753906 C 504.601562 315.570312 506.058594 315.777344 508.457031 314.214844 C 515.957031 309.527344 520.125 302.960938 520.125 294.105469 Z M 520.125 294.105469 " fill-opacity="1" fill-rule="nonzero"/></g><path fill="#16a085" d="M 184.5 335.472656 C 188.042969 334.847656 191.582031 336.617188 195.542969 335.785156 C 204.503906 333.910156 208.777344 330.261719 209.714844 321.089844 C 210.546875 313.070312 207.839844 305.984375 201.273438 300.878906 C 196.792969 297.335938 189.917969 297.335938 185.226562 300.980469 C 180.539062 304.628906 175.121094 306.191406 169.597656 307.546875 C 168.660156 307.753906 167.410156 308.484375 166.886719 307.234375 C 166.574219 306.398438 166.785156 305.148438 167.199219 304.316406 C 167.722656 303.273438 168.660156 302.441406 169.597656 301.605469 C 176.265625 296.394531 179.601562 289.726562 179.078125 281.289062 C 178.871094 278.265625 180.851562 277.015625 183.144531 275.972656 C 189.707031 272.953125 196.792969 270.660156 201.898438 265.136719 C 203.359375 263.574219 205.027344 264.511719 206.691406 265.136719 C 216.59375 268.785156 224.40625 267.324219 230.449219 260.65625 C 236.703125 253.777344 239.308594 243.359375 233.578125 234.8125 C 231.910156 232.210938 232.742188 230.75 234.828125 229.1875 C 238.160156 226.6875 241.601562 224.5 246.183594 224.914062 C 252.226562 225.332031 256.605469 221.582031 261.085938 218.351562 C 267.753906 213.660156 275.046875 210.847656 283.175781 210.117188 C 285.988281 209.910156 287.449219 210.328125 287.863281 213.765625 C 289.011719 222.414062 294.222656 227.625 302.972656 229.5 C 320.167969 233.25 332.878906 223.558594 334.652344 210.015625 C 335.277344 205.324219 343.714844 201.46875 349.445312 204.597656 C 361.117188 211.054688 373.726562 209.390625 385.917969 211.054688 C 391.753906 211.890625 396.859375 213.972656 401.652344 217.308594 C 408.738281 222.207031 415.925781 226.789062 424.472656 229.394531 C 432.183594 231.792969 438.121094 237.523438 443.332031 243.671875 C 448.332031 249.609375 453.230469 255.757812 457.816406 262.011719 C 461.984375 267.742188 467.296875 272.117188 473.238281 275.765625 C 479.90625 279.933594 484.175781 285.246094 485.117188 293.582031 C 486.054688 302.230469 489.179688 310.359375 493.347656 318.175781 C 494.703125 320.675781 495.742188 323.175781 496.160156 325.988281 C 497.308594 333.386719 497.203125 340.992188 501.058594 348.078125 C 503.871094 353.394531 502.308594 359.75 501.265625 365.480469 C 499.390625 375.796875 501.371094 385.902344 502.933594 395.90625 C 503.976562 402.785156 503.871094 409.453125 501.164062 415.808594 C 494.285156 431.648438 489.074219 447.902344 486.574219 464.992188 C 484.804688 476.871094 477.820312 485.101562 468.234375 491.5625 C 464.171875 494.273438 460.210938 496.980469 456.148438 499.691406 C 453.230469 501.671875 450.3125 503.859375 448.542969 506.671875 C 444.582031 513.238281 441.457031 516.78125 432.390625 512.195312 C 423.324219 507.609375 411.027344 515.738281 408.113281 526.886719 C 405.089844 538.453125 395.296875 541.265625 386.542969 545.746094 C 385.605469 546.164062 384.042969 545.957031 383 545.539062 C 376.433594 542.933594 370.390625 544.390625 364.554688 547.621094 C 360.074219 550.019531 355.492188 550.851562 350.59375 549.082031 C 343.613281 546.582031 337.777344 548.875 332.253906 553.25 C 326.003906 558.148438 317.457031 554.917969 316.3125 546.996094 C 315.164062 539.597656 310.996094 535.429688 304.121094 533.867188 C 296.929688 532.304688 290.78125 535.117188 286.925781 540.953125 C 284.320312 544.914062 281.820312 546.476562 277.339844 544.808594 C 276.402344 544.496094 275.257812 544.289062 274.320312 544.289062 C 268.171875 544.496094 263.792969 542.515625 260.25 536.890625 C 257.75 532.828125 252.539062 531.785156 247.851562 531.261719 C 240.664062 530.429688 234.929688 527.40625 231.804688 520.636719 C 231.699219 520.324219 231.386719 520.113281 231.179688 519.800781 C 227.949219 514.800781 226.59375 508.964844 227.21875 503.023438 C 228.785156 489.6875 212.007812 478.433594 198.667969 483.75 C 193.25 485.9375 190.644531 484.789062 188.980469 478.953125 C 188.25 476.664062 187.730469 474.265625 187.3125 471.871094 C 186.375 466.554688 183.457031 462.59375 178.765625 460.09375 C 174.390625 457.699219 172.515625 454.15625 171.785156 449.363281 C 170.640625 442.066406 170.015625 434.566406 167.097656 427.585938 C 166.261719 425.707031 166.992188 424.25 168.347656 422.894531 C 178.558594 412.371094 176.265625 394.867188 164.074219 388.507812 C 161.15625 386.945312 159.699219 378.609375 161.78125 375.378906 C 166.261719 368.398438 166.679688 361.3125 164.074219 353.5 C 161.15625 345.058594 162.199219 343.285156 170.015625 338.910156 C 174.285156 336.511719 179.078125 335.261719 184.5 335.472656 Z M 161.78125 163.019531 C 150.945312 167.292969 145.214844 175.941406 143.859375 187.300781 C 142.296875 200.21875 151.15625 213.765625 167.199219 212.410156 C 171.578125 211.996094 175.953125 213.453125 179.496094 215.953125 C 191.582031 224.5 201.691406 234.917969 206.796875 249.195312 C 208.152344 253.050781 210.546875 254.820312 214.300781 255.339844 C 218.15625 255.863281 221.074219 254.714844 223.050781 251.277344 C 226.492188 245.546875 225.449219 239.816406 218.882812 236.378906 C 212.945312 233.148438 208.882812 228.457031 205.234375 223.144531 C 197.316406 211.367188 186.375 200.742188 189.707031 185.109375 C 189.8125 167.8125 176.371094 157.289062 161.78125 163.019531 Z M 275.464844 136.96875 C 273.902344 146.035156 282.550781 159.164062 293.285156 163.125 C 297.242188 164.582031 299.640625 167.085938 300.785156 171.042969 C 304.640625 184.277344 306.203125 197.511719 300.679688 210.640625 C 299.742188 212.933594 299.847656 215.015625 302.035156 216.578125 C 307.039062 220.226562 316.625 219.078125 320.6875 214.390625 C 322.148438 212.621094 322.875 210.742188 321.730469 208.660156 C 316.9375 199.175781 315.476562 188.863281 315.164062 178.441406 C 314.75 168.230469 313.914062 158.019531 320.582031 148.535156 C 326.105469 140.617188 325.0625 131.863281 319.4375 127.175781 C 313.183594 121.964844 305.578125 119.464844 299.117188 118.632812 C 286.71875 118.632812 277.238281 126.445312 275.464844 136.96875 Z M 175.121094 555.644531 C 176.578125 549.5 178.039062 543.453125 181.996094 538.453125 C 190.125 528.03125 198.667969 518.03125 209.195312 510.007812 C 211.277344 508.445312 213.257812 506.671875 214.195312 504.171875 C 215.863281 500.210938 213.882812 496.878906 209.195312 494.898438 C 205.027344 493.230469 202.941406 494.375 201.585938 498.753906 C 198.667969 508.132812 192.625 515.632812 184.914062 521.46875 C 176.371094 527.929688 166.886719 533.035156 155.636719 530.742188 C 145.632812 528.660156 138.234375 532.828125 132.503906 540.222656 C 127.398438 546.789062 128.4375 554.292969 131.773438 561.378906 C 135.628906 569.609375 142.296875 573.984375 149.589844 574.089844 C 163.03125 574.089844 172.410156 566.796875 175.121094 555.644531 Z M 453.230469 142.910156 C 443.539062 141.761719 433.535156 149.472656 430.722656 160.726562 C 429.367188 166.25 427.910156 172.503906 432.078125 177.085938 C 435.828125 181.253906 436.039062 185.421875 435.097656 190.007812 C 433.328125 198.449219 431.347656 206.886719 426.347656 214.285156 C 425.722656 215.121094 424.367188 216.371094 426.035156 217.308594 C 427.285156 218.039062 428.742188 217.933594 429.472656 216.265625 C 429.992188 215.121094 430.515625 214.078125 431.140625 213.035156 C 436.246094 203.660156 443.539062 196.574219 453.960938 193.863281 C 467.089844 190.632812 474.175781 182.402344 474.175781 168.855469 C 474.382812 154.996094 465.839844 144.472656 453.230469 142.910156 Z M 578.0625 476.351562 C 572.746094 463.011719 554.929688 458.113281 542.53125 466.761719 C 538.777344 469.367188 535.234375 469.890625 530.859375 469.054688 C 520.4375 467.074219 511.789062 461.96875 503.976562 455.09375 C 501.578125 452.90625 500.539062 453.21875 500.121094 456.34375 C 499.910156 457.90625 499.496094 459.367188 499.183594 460.929688 C 498.871094 462.804688 499.078125 464.160156 501.476562 464.574219 C 517.625 467.804688 527.628906 478.433594 534.820312 492.5 C 539.195312 501.148438 546.074219 505.316406 555.660156 505.421875 C 572.433594 505.527344 583.792969 490.730469 578.0625 476.351562 Z M 192.3125 324.113281 C 194.605469 324.113281 197.003906 324.21875 197.730469 321.40625 C 198.667969 317.652344 198.148438 314.109375 195.125 311.402344 C 192.625 309.214844 191.0625 311.921875 189.292969 312.859375 C 176.683594 319.839844 163.03125 322.238281 148.757812 321.089844 C 144.484375 320.777344 141.152344 317.863281 137.191406 316.507812 C 129.375 313.796875 119.269531 316.820312 116.871094 323.28125 C 113.121094 333.179688 112.601562 346.101562 123.230469 355.164062 C 131.667969 362.25 142.402344 359.855469 146.152344 349.328125 C 146.984375 346.933594 147.714844 344.328125 149.277344 342.246094 C 158.238281 329.84375 170.117188 323.28125 185.644531 324.21875 C 187.832031 324.113281 190.125 324.113281 192.3125 324.113281 Z M 110.410156 433.628906 C 113.328125 429.5625 117.082031 426.644531 121.351562 424.355469 C 131.355469 419.144531 142.191406 416.957031 153.34375 416.644531 C 160.84375 416.433594 165.117188 409.558594 161.886719 402.890625 C 160.742188 400.386719 159.59375 399.347656 156.886719 401.636719 C 153.550781 404.660156 150.007812 407.578125 146.152344 409.765625 C 131.980469 417.894531 117.496094 421.019531 102.597656 411.640625 C 99.367188 409.660156 95.824219 408.203125 91.96875 407.578125 C 85.300781 406.429688 77.378906 409.765625 73.835938 415.289062 C 70.710938 420.1875 71.335938 426.75 75.609375 432.792969 C 80.089844 439.046875 86.238281 441.964844 94.679688 441.859375 C 101.136719 442.484375 106.347656 439.152344 110.410156 433.628906 Z M 461.460938 611.496094 C 468.445312 613.371094 476.257812 609.621094 479.695312 602.746094 C 483.449219 595.242188 482.09375 587.21875 475.632812 582.738281 C 460.734375 572.214844 449.167969 558.980469 441.457031 542.414062 C 438.746094 536.683594 436.351562 530.636719 432.285156 525.53125 C 429.578125 522.09375 425.617188 522.300781 421.96875 525.84375 C 418.21875 529.492188 418.324219 531.574219 421.96875 535.117188 C 429.472656 542.308594 437.703125 549.082031 443.019531 558.042969 C 450 570.027344 457.085938 582.21875 452.1875 595.972656 C 451.980469 604.722656 455.3125 609.832031 461.460938 611.496094 Z M 533.671875 347.664062 C 542.84375 346.621094 551.492188 347.453125 559.410156 352.976562 C 566.078125 357.664062 571.394531 357.144531 576.5 352.664062 C 586.191406 344.222656 587.648438 326.40625 579.417969 316.609375 C 576.1875 312.753906 572.019531 311.503906 567.226562 312.859375 C 562.328125 314.214844 556.386719 320.257812 556.910156 324.21875 C 557.535156 328.90625 555.136719 331.71875 552.53125 334.742188 C 547.53125 340.679688 540.863281 343.808594 533.570312 345.890625 C 533.570312 346.515625 533.570312 347.140625 533.671875 347.664062 Z M 304.433594 587.011719 C 300.679688 578.675781 300.367188 570.339844 302.035156 561.585938 C 302.765625 557.835938 303.703125 554.1875 304.328125 550.4375 C 304.640625 548.769531 304.433594 546.789062 302.347656 546.058594 C 300.679688 545.433594 298.910156 545.644531 297.347656 546.683594 C 294.742188 548.457031 294.949219 550.75 295.261719 553.5625 C 297.035156 568.359375 291.617188 580.445312 280.152344 589.617188 C 275.152344 593.574219 272.546875 598.160156 274.007812 603.785156 C 275.257812 608.683594 280.050781 611.707031 286.71875 611.707031 C 301.410156 611.808594 310.269531 599.722656 304.433594 587.011719 Z M 498.765625 276.179688 C 494.703125 276.808594 491.574219 277.847656 494.597656 283.164062 C 495.847656 285.351562 496.054688 288.164062 496.472656 290.664062 C 497.722656 298.375 500.222656 305.671875 503.453125 312.753906 C 504.707031 315.570312 506.164062 315.777344 508.558594 314.214844 C 515.855469 309.527344 520.125 302.960938 520.125 294.105469 C 520.125 282.121094 510.644531 274.203125 498.765625 276.179688 Z M 516.0625 347.039062 C 514.917969 347.039062 513.355469 346.515625 513.144531 348.289062 C 513.042969 349.644531 513.355469 351.101562 513.980469 352.246094 C 514.8125 353.8125 516.167969 352.558594 517.105469 352.144531 C 522.316406 349.746094 527.941406 348.601562 533.464844 347.664062 C 533.464844 347.140625 533.464844 346.515625 533.464844 345.890625 C 527.734375 346.933594 521.898438 347.140625 516.0625 347.039062 Z M 516.0625 347.039062 " fill-opacity="1" fill-rule="nonzero"/><g fill="#34495e" fill-opacity="1"><g transform="translate(90.325786, 1115.611046)"><g><path d="M 5.328125 -17.109375 L 5.328125 0 L 2.734375 0 L 2.734375 -17.109375 Z M 4.0625 -23.515625 C 4.488281 -23.515625 4.851562 -23.375 5.15625 -23.09375 C 5.46875 -22.820312 5.625 -22.394531 5.625 -21.8125 C 5.625 -21.238281 5.46875 -20.8125 5.15625 -20.53125 C 4.851562 -20.25 4.488281 -20.109375 4.0625 -20.109375 C 3.613281 -20.109375 3.238281 -20.25 2.9375 -20.53125 C 2.644531 -20.8125 2.5 -21.238281 2.5 -21.8125 C 2.5 -22.394531 2.644531 -22.820312 2.9375 -23.09375 C 3.238281 -23.375 3.613281 -23.515625 4.0625 -23.515625 Z M 4.0625 -23.515625 "/></g></g></g><g fill="#34495e" fill-opacity="1"><g transform="translate(98.39481, 1115.611046)"><g><path d="M 13.796875 -4.6875 C 13.796875 -3.59375 13.519531 -2.671875 12.96875 -1.921875 C 12.425781 -1.179688 11.644531 -0.625 10.625 -0.25 C 9.613281 0.125 8.410156 0.3125 7.015625 0.3125 C 5.816406 0.3125 4.78125 0.21875 3.90625 0.03125 C 3.03125 -0.15625 2.265625 -0.421875 1.609375 -0.765625 L 1.609375 -3.15625 C 2.304688 -2.8125 3.140625 -2.5 4.109375 -2.21875 C 5.078125 -1.9375 6.066406 -1.796875 7.078125 -1.796875 C 8.546875 -1.796875 9.613281 -2.035156 10.28125 -2.515625 C 10.945312 -2.992188 11.28125 -3.644531 11.28125 -4.46875 C 11.28125 -4.9375 11.144531 -5.347656 10.875 -5.703125 C 10.613281 -6.066406 10.171875 -6.414062 9.546875 -6.75 C 8.921875 -7.09375 8.0625 -7.46875 6.96875 -7.875 C 5.875 -8.28125 4.925781 -8.6875 4.125 -9.09375 C 3.332031 -9.507812 2.71875 -10.015625 2.28125 -10.609375 C 1.851562 -11.203125 1.640625 -11.972656 1.640625 -12.921875 C 1.640625 -14.367188 2.222656 -15.476562 3.390625 -16.25 C 4.566406 -17.03125 6.101562 -17.421875 8 -17.421875 C 9.03125 -17.421875 9.992188 -17.316406 10.890625 -17.109375 C 11.796875 -16.910156 12.640625 -16.640625 13.421875 -16.296875 L 12.546875 -14.21875 C 11.835938 -14.519531 11.082031 -14.773438 10.28125 -14.984375 C 9.476562 -15.191406 8.664062 -15.296875 7.84375 -15.296875 C 6.644531 -15.296875 5.722656 -15.097656 5.078125 -14.703125 C 4.441406 -14.304688 4.125 -13.765625 4.125 -13.078125 C 4.125 -12.546875 4.269531 -12.109375 4.5625 -11.765625 C 4.863281 -11.421875 5.34375 -11.097656 6 -10.796875 C 6.65625 -10.492188 7.515625 -10.140625 8.578125 -9.734375 C 9.648438 -9.335938 10.578125 -8.929688 11.359375 -8.515625 C 12.140625 -8.097656 12.738281 -7.585938 13.15625 -6.984375 C 13.582031 -6.390625 13.796875 -5.625 13.796875 -4.6875 Z M 13.796875 -4.6875 "/></g></g></g><g fill="#34495e" fill-opacity="1"><g transform="translate(113.627631, 1115.611046)"><g><path d="M 9.125 -17.390625 C 11.164062 -17.390625 12.679688 -16.929688 13.671875 -16.015625 C 14.660156 -15.097656 15.15625 -13.632812 15.15625 -11.625 L 15.15625 0 L 13.265625 0 L 12.765625 -2.53125 L 12.640625 -2.53125 C 12.160156 -1.90625 11.660156 -1.378906 11.140625 -0.953125 C 10.617188 -0.535156 10.015625 -0.21875 9.328125 0 C 8.648438 0.207031 7.820312 0.3125 6.84375 0.3125 C 5.800781 0.3125 4.875 0.128906 4.0625 -0.234375 C 3.257812 -0.597656 2.625 -1.148438 2.15625 -1.890625 C 1.695312 -2.628906 1.46875 -3.566406 1.46875 -4.703125 C 1.46875 -6.410156 2.144531 -7.71875 3.5 -8.625 C 4.851562 -9.539062 6.910156 -10.039062 9.671875 -10.125 L 12.625 -10.25 L 12.625 -11.296875 C 12.625 -12.773438 12.304688 -13.8125 11.671875 -14.40625 C 11.035156 -15 10.140625 -15.296875 8.984375 -15.296875 C 8.097656 -15.296875 7.25 -15.164062 6.4375 -14.90625 C 5.625 -14.644531 4.851562 -14.335938 4.125 -13.984375 L 3.328125 -15.953125 C 4.097656 -16.347656 4.984375 -16.6875 5.984375 -16.96875 C 6.984375 -17.25 8.03125 -17.390625 9.125 -17.390625 Z M 12.59375 -8.421875 L 9.984375 -8.3125 C 7.859375 -8.226562 6.359375 -7.878906 5.484375 -7.265625 C 4.609375 -6.660156 4.171875 -5.796875 4.171875 -4.671875 C 4.171875 -3.691406 4.46875 -2.96875 5.0625 -2.5 C 5.65625 -2.03125 6.441406 -1.796875 7.421875 -1.796875 C 8.929688 -1.796875 10.171875 -2.21875 11.140625 -3.0625 C 12.109375 -3.90625 12.59375 -5.171875 12.59375 -6.859375 Z M 12.59375 -8.421875 "/></g></g></g><g fill="#34495e" fill-opacity="1"><g transform="translate(131.38885, 1115.611046)"><g><path d="M 5.34375 0 L 2.734375 0 L 2.734375 -24.28125 L 5.34375 -24.28125 Z M 5.34375 0 "/></g></g></g><g fill="#34495e" fill-opacity="1"><g transform="translate(139.457875, 1115.611046)"><g><path d="M 7.515625 7.6875 C 5.265625 7.6875 3.53125 7.265625 2.3125 6.421875 C 1.09375 5.585938 0.484375 4.414062 0.484375 2.90625 C 0.484375 1.832031 0.820312 0.914062 1.5 0.15625 C 2.1875 -0.601562 3.132812 -1.109375 4.34375 -1.359375 C 3.894531 -1.566406 3.507812 -1.878906 3.1875 -2.296875 C 2.875 -2.710938 2.71875 -3.191406 2.71875 -3.734375 C 2.71875 -4.359375 2.890625 -4.90625 3.234375 -5.375 C 3.585938 -5.851562 4.125 -6.3125 4.84375 -6.75 C 3.945312 -7.113281 3.21875 -7.726562 2.65625 -8.59375 C 2.101562 -9.457031 1.828125 -10.46875 1.828125 -11.625 C 1.828125 -12.851562 2.082031 -13.898438 2.59375 -14.765625 C 3.101562 -15.640625 3.84375 -16.304688 4.8125 -16.765625 C 5.78125 -17.222656 6.945312 -17.453125 8.3125 -17.453125 C 8.613281 -17.453125 8.914062 -17.4375 9.21875 -17.40625 C 9.53125 -17.382812 9.828125 -17.347656 10.109375 -17.296875 C 10.390625 -17.253906 10.632812 -17.203125 10.84375 -17.140625 L 16.71875 -17.140625 L 16.71875 -15.46875 L 13.5625 -15.078125 C 13.875 -14.671875 14.132812 -14.179688 14.34375 -13.609375 C 14.550781 -13.035156 14.65625 -12.398438 14.65625 -11.703125 C 14.65625 -9.992188 14.078125 -8.640625 12.921875 -7.640625 C 11.765625 -6.640625 10.175781 -6.140625 8.15625 -6.140625 C 7.6875 -6.140625 7.203125 -6.179688 6.703125 -6.265625 C 6.191406 -5.984375 5.800781 -5.671875 5.53125 -5.328125 C 5.269531 -4.984375 5.140625 -4.585938 5.140625 -4.140625 C 5.140625 -3.804688 5.238281 -3.539062 5.4375 -3.34375 C 5.644531 -3.144531 5.941406 -3 6.328125 -2.90625 C 6.710938 -2.820312 7.175781 -2.78125 7.71875 -2.78125 L 10.71875 -2.78125 C 12.582031 -2.78125 14.007812 -2.390625 15 -1.609375 C 16 -0.828125 16.5 0.3125 16.5 1.8125 C 16.5 3.707031 15.726562 5.160156 14.1875 6.171875 C 12.644531 7.179688 10.421875 7.6875 7.515625 7.6875 Z M 7.59375 5.65625 C 9 5.65625 10.164062 5.507812 11.09375 5.21875 C 12.03125 4.9375 12.726562 4.523438 13.1875 3.984375 C 13.65625 3.453125 13.890625 2.816406 13.890625 2.078125 C 13.890625 1.390625 13.734375 0.867188 13.421875 0.515625 C 13.109375 0.171875 12.648438 -0.0546875 12.046875 -0.171875 C 11.441406 -0.296875 10.703125 -0.359375 9.828125 -0.359375 L 6.875 -0.359375 C 6.101562 -0.359375 5.429688 -0.238281 4.859375 0 C 4.285156 0.238281 3.84375 0.59375 3.53125 1.0625 C 3.226562 1.53125 3.078125 2.113281 3.078125 2.8125 C 3.078125 3.738281 3.46875 4.441406 4.25 4.921875 C 5.03125 5.410156 6.144531 5.65625 7.59375 5.65625 Z M 8.25 -8.015625 C 9.488281 -8.015625 10.421875 -8.328125 11.046875 -8.953125 C 11.671875 -9.578125 11.984375 -10.488281 11.984375 -11.6875 C 11.984375 -12.96875 11.664062 -13.925781 11.03125 -14.5625 C 10.394531 -15.207031 9.457031 -15.53125 8.21875 -15.53125 C 7.039062 -15.53125 6.128906 -15.195312 5.484375 -14.53125 C 4.847656 -13.875 4.53125 -12.910156 4.53125 -11.640625 C 4.53125 -10.472656 4.851562 -9.578125 5.5 -8.953125 C 6.144531 -8.328125 7.0625 -8.015625 8.25 -8.015625 Z M 8.25 -8.015625 "/></g></g></g><g fill="#34495e" fill-opacity="1"><g transform="translate(156.813302, 1115.611046)"><g><path d="M 17.484375 -8.578125 C 17.484375 -7.179688 17.300781 -5.929688 16.9375 -4.828125 C 16.570312 -3.722656 16.046875 -2.789062 15.359375 -2.03125 C 14.671875 -1.269531 13.835938 -0.6875 12.859375 -0.28125 C 11.890625 0.113281 10.789062 0.3125 9.5625 0.3125 C 8.425781 0.3125 7.378906 0.113281 6.421875 -0.28125 C 5.472656 -0.6875 4.648438 -1.269531 3.953125 -2.03125 C 3.265625 -2.789062 2.726562 -3.722656 2.34375 -4.828125 C 1.96875 -5.929688 1.78125 -7.179688 1.78125 -8.578125 C 1.78125 -10.453125 2.097656 -12.046875 2.734375 -13.359375 C 3.367188 -14.679688 4.273438 -15.6875 5.453125 -16.375 C 6.640625 -17.070312 8.046875 -17.421875 9.671875 -17.421875 C 11.234375 -17.421875 12.597656 -17.070312 13.765625 -16.375 C 14.941406 -15.675781 15.851562 -14.664062 16.5 -13.34375 C 17.15625 -12.03125 17.484375 -10.441406 17.484375 -8.578125 Z M 4.46875 -8.578125 C 4.46875 -7.210938 4.648438 -6.023438 5.015625 -5.015625 C 5.378906 -4.003906 5.941406 -3.222656 6.703125 -2.671875 C 7.460938 -2.117188 8.4375 -1.84375 9.625 -1.84375 C 10.8125 -1.84375 11.785156 -2.117188 12.546875 -2.671875 C 13.316406 -3.222656 13.882812 -4.003906 14.25 -5.015625 C 14.613281 -6.023438 14.796875 -7.210938 14.796875 -8.578125 C 14.796875 -9.941406 14.613281 -11.117188 14.25 -12.109375 C 13.882812 -13.109375 13.320312 -13.878906 12.5625 -14.421875 C 11.800781 -14.960938 10.816406 -15.234375 9.609375 -15.234375 C 7.835938 -15.234375 6.535156 -14.644531 5.703125 -13.46875 C 4.878906 -12.289062 4.46875 -10.660156 4.46875 -8.578125 Z M 4.46875 -8.578125 "/></g></g></g><g fill="#34495e" fill-opacity="1"><g transform="translate(176.041616, 1115.611046)"><g/></g></g><g fill="#34495e" fill-opacity="1"><g transform="translate(184.344752, 1115.611046)"><g><path d="M 5.34375 0 L 2.734375 0 L 2.734375 -24.28125 L 5.34375 -24.28125 Z M 5.34375 0 "/></g></g></g><g fill="#34495e" fill-opacity="1"><g transform="translate(192.413777, 1115.611046)"><g><path d="M 9.125 -17.390625 C 11.164062 -17.390625 12.679688 -16.929688 13.671875 -16.015625 C 14.660156 -15.097656 15.15625 -13.632812 15.15625 -11.625 L 15.15625 0 L 13.265625 0 L 12.765625 -2.53125 L 12.640625 -2.53125 C 12.160156 -1.90625 11.660156 -1.378906 11.140625 -0.953125 C 10.617188 -0.535156 10.015625 -0.21875 9.328125 0 C 8.648438 0.207031 7.820312 0.3125 6.84375 0.3125 C 5.800781 0.3125 4.875 0.128906 4.0625 -0.234375 C 3.257812 -0.597656 2.625 -1.148438 2.15625 -1.890625 C 1.695312 -2.628906 1.46875 -3.566406 1.46875 -4.703125 C 1.46875 -6.410156 2.144531 -7.71875 3.5 -8.625 C 4.851562 -9.539062 6.910156 -10.039062 9.671875 -10.125 L 12.625 -10.25 L 12.625 -11.296875 C 12.625 -12.773438 12.304688 -13.8125 11.671875 -14.40625 C 11.035156 -15 10.140625 -15.296875 8.984375 -15.296875 C 8.097656 -15.296875 7.25 -15.164062 6.4375 -14.90625 C 5.625 -14.644531 4.851562 -14.335938 4.125 -13.984375 L 3.328125 -15.953125 C 4.097656 -16.347656 4.984375 -16.6875 5.984375 -16.96875 C 6.984375 -17.25 8.03125 -17.390625 9.125 -17.390625 Z M 12.59375 -8.421875 L 9.984375 -8.3125 C 7.859375 -8.226562 6.359375 -7.878906 5.484375 -7.265625 C 4.609375 -6.660156 4.171875 -5.796875 4.171875 -4.671875 C 4.171875 -3.691406 4.46875 -2.96875 5.0625 -2.5 C 5.65625 -2.03125 6.441406 -1.796875 7.421875 -1.796875 C 8.929688 -1.796875 10.171875 -2.21875 11.140625 -3.0625 C 12.109375 -3.90625 12.59375 -5.171875 12.59375 -6.859375 Z M 12.59375 -8.421875 "/></g></g></g><g fill="#34495e" fill-opacity="1"><g transform="translate(210.174996, 1115.611046)"><g><path d="M 5.328125 -24.28125 L 5.328125 -18.21875 C 5.328125 -17.519531 5.304688 -16.84375 5.265625 -16.1875 C 5.234375 -15.53125 5.207031 -15.019531 5.1875 -14.65625 L 5.328125 -14.65625 C 5.796875 -15.425781 6.46875 -16.078125 7.34375 -16.609375 C 8.226562 -17.140625 9.359375 -17.40625 10.734375 -17.40625 C 12.878906 -17.40625 14.585938 -16.660156 15.859375 -15.171875 C 17.140625 -13.691406 17.78125 -11.488281 17.78125 -8.5625 C 17.78125 -6.644531 17.488281 -5.023438 16.90625 -3.703125 C 16.320312 -2.378906 15.5 -1.378906 14.4375 -0.703125 C 13.375 -0.0234375 12.117188 0.3125 10.671875 0.3125 C 9.316406 0.3125 8.207031 0.0625 7.34375 -0.4375 C 6.476562 -0.945312 5.8125 -1.566406 5.34375 -2.296875 L 5.140625 -2.296875 L 4.609375 0 L 2.734375 0 L 2.734375 -24.28125 Z M 10.3125 -15.234375 C 9.070312 -15.234375 8.085938 -14.988281 7.359375 -14.5 C 6.640625 -14.019531 6.117188 -13.289062 5.796875 -12.3125 C 5.484375 -11.34375 5.328125 -10.113281 5.328125 -8.625 L 5.328125 -8.484375 C 5.328125 -6.335938 5.6875 -4.691406 6.40625 -3.546875 C 7.125 -2.410156 8.425781 -1.84375 10.3125 -1.84375 C 11.90625 -1.84375 13.097656 -2.425781 13.890625 -3.59375 C 14.691406 -4.757812 15.09375 -6.421875 15.09375 -8.578125 C 15.09375 -10.785156 14.695312 -12.445312 13.90625 -13.5625 C 13.125 -14.675781 11.925781 -15.234375 10.3125 -15.234375 Z M 10.3125 -15.234375 "/></g></g></g><g fill="#34495e" fill-opacity="1"><g transform="translate(229.731066, 1115.611046)"><g><path d="M 17.484375 -8.578125 C 17.484375 -7.179688 17.300781 -5.929688 16.9375 -4.828125 C 16.570312 -3.722656 16.046875 -2.789062 15.359375 -2.03125 C 14.671875 -1.269531 13.835938 -0.6875 12.859375 -0.28125 C 11.890625 0.113281 10.789062 0.3125 9.5625 0.3125 C 8.425781 0.3125 7.378906 0.113281 6.421875 -0.28125 C 5.472656 -0.6875 4.648438 -1.269531 3.953125 -2.03125 C 3.265625 -2.789062 2.726562 -3.722656 2.34375 -4.828125 C 1.96875 -5.929688 1.78125 -7.179688 1.78125 -8.578125 C 1.78125 -10.453125 2.097656 -12.046875 2.734375 -13.359375 C 3.367188 -14.679688 4.273438 -15.6875 5.453125 -16.375 C 6.640625 -17.070312 8.046875 -17.421875 9.671875 -17.421875 C 11.234375 -17.421875 12.597656 -17.070312 13.765625 -16.375 C 14.941406 -15.675781 15.851562 -14.664062 16.5 -13.34375 C 17.15625 -12.03125 17.484375 -10.441406 17.484375 -8.578125 Z M 4.46875 -8.578125 C 4.46875 -7.210938 4.648438 -6.023438 5.015625 -5.015625 C 5.378906 -4.003906 5.941406 -3.222656 6.703125 -2.671875 C 7.460938 -2.117188 8.4375 -1.84375 9.625 -1.84375 C 10.8125 -1.84375 11.785156 -2.117188 12.546875 -2.671875 C 13.316406 -3.222656 13.882812 -4.003906 14.25 -5.015625 C 14.613281 -6.023438 14.796875 -7.210938 14.796875 -8.578125 C 14.796875 -9.941406 14.613281 -11.117188 14.25 -12.109375 C 13.882812 -13.109375 13.320312 -13.878906 12.5625 -14.421875 C 11.800781 -14.960938 10.816406 -15.234375 9.609375 -15.234375 C 7.835938 -15.234375 6.535156 -14.644531 5.703125 -13.46875 C 4.878906 -12.289062 4.46875 -10.660156 4.46875 -8.578125 Z M 4.46875 -8.578125 "/></g></g></g><g fill="#34495e" fill-opacity="1"><g transform="translate(248.95938, 1115.611046)"><g><path d="M 10.5 -17.421875 C 10.84375 -17.421875 11.203125 -17.398438 11.578125 -17.359375 C 11.953125 -17.328125 12.285156 -17.28125 12.578125 -17.21875 L 12.25 -14.8125 C 11.96875 -14.882812 11.65625 -14.941406 11.3125 -14.984375 C 10.96875 -15.023438 10.644531 -15.046875 10.34375 -15.046875 C 9.65625 -15.046875 9.007812 -14.90625 8.40625 -14.625 C 7.800781 -14.351562 7.269531 -13.957031 6.8125 -13.4375 C 6.351562 -12.925781 5.992188 -12.304688 5.734375 -11.578125 C 5.472656 -10.859375 5.34375 -10.054688 5.34375 -9.171875 L 5.34375 0 L 2.734375 0 L 2.734375 -17.109375 L 4.890625 -17.109375 L 5.171875 -13.953125 L 5.28125 -13.953125 C 5.632812 -14.585938 6.0625 -15.164062 6.5625 -15.6875 C 7.0625 -16.21875 7.640625 -16.640625 8.296875 -16.953125 C 8.953125 -17.265625 9.6875 -17.421875 10.5 -17.421875 Z M 10.5 -17.421875 "/></g></g></g><g fill="#34495e" fill-opacity="1"><g transform="translate(262.022773, 1115.611046)"><g><path d="M 9.125 -17.390625 C 11.164062 -17.390625 12.679688 -16.929688 13.671875 -16.015625 C 14.660156 -15.097656 15.15625 -13.632812 15.15625 -11.625 L 15.15625 0 L 13.265625 0 L 12.765625 -2.53125 L 12.640625 -2.53125 C 12.160156 -1.90625 11.660156 -1.378906 11.140625 -0.953125 C 10.617188 -0.535156 10.015625 -0.21875 9.328125 0 C 8.648438 0.207031 7.820312 0.3125 6.84375 0.3125 C 5.800781 0.3125 4.875 0.128906 4.0625 -0.234375 C 3.257812 -0.597656 2.625 -1.148438 2.15625 -1.890625 C 1.695312 -2.628906 1.46875 -3.566406 1.46875 -4.703125 C 1.46875 -6.410156 2.144531 -7.71875 3.5 -8.625 C 4.851562 -9.539062 6.910156 -10.039062 9.671875 -10.125 L 12.625 -10.25 L 12.625 -11.296875 C 12.625 -12.773438 12.304688 -13.8125 11.671875 -14.40625 C 11.035156 -15 10.140625 -15.296875 8.984375 -15.296875 C 8.097656 -15.296875 7.25 -15.164062 6.4375 -14.90625 C 5.625 -14.644531 4.851562 -14.335938 4.125 -13.984375 L 3.328125 -15.953125 C 4.097656 -16.347656 4.984375 -16.6875 5.984375 -16.96875 C 6.984375 -17.25 8.03125 -17.390625 9.125 -17.390625 Z M 12.59375 -8.421875 L 9.984375 -8.3125 C 7.859375 -8.226562 6.359375 -7.878906 5.484375 -7.265625 C 4.609375 -6.660156 4.171875 -5.796875 4.171875 -4.671875 C 4.171875 -3.691406 4.46875 -2.96875 5.0625 -2.5 C 5.65625 -2.03125 6.441406 -1.796875 7.421875 -1.796875 C 8.929688 -1.796875 10.171875 -2.21875 11.140625 -3.0625 C 12.109375 -3.90625 12.59375 -5.171875 12.59375 -6.859375 Z M 12.59375 -8.421875 "/></g></g></g><g fill="#34495e" fill-opacity="1"><g transform="translate(279.783992, 1115.611046)"><g><path d="M 8.25 -1.8125 C 8.675781 -1.8125 9.113281 -1.847656 9.5625 -1.921875 C 10.007812 -1.992188 10.375 -2.082031 10.65625 -2.1875 L 10.65625 -0.171875 C 10.351562 -0.0351562 9.929688 0.078125 9.390625 0.171875 C 8.859375 0.265625 8.34375 0.3125 7.84375 0.3125 C 6.9375 0.3125 6.113281 0.15625 5.375 -0.15625 C 4.632812 -0.476562 4.039062 -1.019531 3.59375 -1.78125 C 3.15625 -2.539062 2.9375 -3.59375 2.9375 -4.9375 L 2.9375 -15.078125 L 0.5 -15.078125 L 0.5 -16.34375 L 2.953125 -17.359375 L 3.984375 -21.078125 L 5.546875 -21.078125 L 5.546875 -17.109375 L 10.546875 -17.109375 L 10.546875 -15.078125 L 5.546875 -15.078125 L 5.546875 -5.015625 C 5.546875 -3.941406 5.789062 -3.140625 6.28125 -2.609375 C 6.78125 -2.078125 7.4375 -1.8125 8.25 -1.8125 Z M 8.25 -1.8125 "/></g></g></g><g fill="#34495e" fill-opacity="1"><g transform="translate(291.177381, 1115.611046)"><g><path d="M 17.484375 -8.578125 C 17.484375 -7.179688 17.300781 -5.929688 16.9375 -4.828125 C 16.570312 -3.722656 16.046875 -2.789062 15.359375 -2.03125 C 14.671875 -1.269531 13.835938 -0.6875 12.859375 -0.28125 C 11.890625 0.113281 10.789062 0.3125 9.5625 0.3125 C 8.425781 0.3125 7.378906 0.113281 6.421875 -0.28125 C 5.472656 -0.6875 4.648438 -1.269531 3.953125 -2.03125 C 3.265625 -2.789062 2.726562 -3.722656 2.34375 -4.828125 C 1.96875 -5.929688 1.78125 -7.179688 1.78125 -8.578125 C 1.78125 -10.453125 2.097656 -12.046875 2.734375 -13.359375 C 3.367188 -14.679688 4.273438 -15.6875 5.453125 -16.375 C 6.640625 -17.070312 8.046875 -17.421875 9.671875 -17.421875 C 11.234375 -17.421875 12.597656 -17.070312 13.765625 -16.375 C 14.941406 -15.675781 15.851562 -14.664062 16.5 -13.34375 C 17.15625 -12.03125 17.484375 -10.441406 17.484375 -8.578125 Z M 4.46875 -8.578125 C 4.46875 -7.210938 4.648438 -6.023438 5.015625 -5.015625 C 5.378906 -4.003906 5.941406 -3.222656 6.703125 -2.671875 C 7.460938 -2.117188 8.4375 -1.84375 9.625 -1.84375 C 10.8125 -1.84375 11.785156 -2.117188 12.546875 -2.671875 C 13.316406 -3.222656 13.882812 -4.003906 14.25 -5.015625 C 14.613281 -6.023438 14.796875 -7.210938 14.796875 -8.578125 C 14.796875 -9.941406 14.613281 -11.117188 14.25 -12.109375 C 13.882812 -13.109375 13.320312 -13.878906 12.5625 -14.421875 C 11.800781 -14.960938 10.816406 -15.234375 9.609375 -15.234375 C 7.835938 -15.234375 6.535156 -14.644531 5.703125 -13.46875 C 4.878906 -12.289062 4.46875 -10.660156 4.46875 -8.578125 Z M 4.46875 -8.578125 "/></g></g></g><g fill="#34495e" fill-opacity="1"><g transform="translate(310.405695, 1115.611046)"><g><path d="M 10.5 -17.421875 C 10.84375 -17.421875 11.203125 -17.398438 11.578125 -17.359375 C 11.953125 -17.328125 12.285156 -17.28125 12.578125 -17.21875 L 12.25 -14.8125 C 11.96875 -14.882812 11.65625 -14.941406 11.3125 -14.984375 C 10.96875 -15.023438 10.644531 -15.046875 10.34375 -15.046875 C 9.65625 -15.046875 9.007812 -14.90625 8.40625 -14.625 C 7.800781 -14.351562 7.269531 -13.957031 6.8125 -13.4375 C 6.351562 -12.925781 5.992188 -12.304688 5.734375 -11.578125 C 5.472656 -10.859375 5.34375 -10.054688 5.34375 -9.171875 L 5.34375 0 L 2.734375 0 L 2.734375 -17.109375 L 4.890625 -17.109375 L 5.171875 -13.953125 L 5.28125 -13.953125 C 5.632812 -14.585938 6.0625 -15.164062 6.5625 -15.6875 C 7.0625 -16.21875 7.640625 -16.640625 8.296875 -16.953125 C 8.953125 -17.265625 9.6875 -17.421875 10.5 -17.421875 Z M 10.5 -17.421875 "/></g></g></g><g fill="#34495e" fill-opacity="1"><g transform="translate(323.469099, 1115.611046)"><g><path d="M 0.03125 -17.109375 L 2.8125 -17.109375 L 6.59375 -7.1875 C 6.8125 -6.601562 7.015625 -6.039062 7.203125 -5.5 C 7.390625 -4.96875 7.554688 -4.457031 7.703125 -3.96875 C 7.847656 -3.476562 7.957031 -3.003906 8.03125 -2.546875 L 8.140625 -2.546875 C 8.285156 -3.066406 8.492188 -3.75 8.765625 -4.59375 C 9.035156 -5.445312 9.328125 -6.316406 9.640625 -7.203125 L 13.21875 -17.109375 L 16.015625 -17.109375 L 8.5625 2.515625 C 8.175781 3.566406 7.71875 4.484375 7.1875 5.265625 C 6.664062 6.046875 6.03125 6.644531 5.28125 7.0625 C 4.53125 7.488281 3.625 7.703125 2.5625 7.703125 C 2.070312 7.703125 1.640625 7.671875 1.265625 7.609375 C 0.890625 7.554688 0.566406 7.492188 0.296875 7.421875 L 0.296875 5.34375 C 0.523438 5.394531 0.800781 5.441406 1.125 5.484375 C 1.457031 5.523438 1.800781 5.546875 2.15625 5.546875 C 2.800781 5.546875 3.359375 5.421875 3.828125 5.171875 C 4.304688 4.929688 4.71875 4.578125 5.0625 4.109375 C 5.40625 3.640625 5.703125 3.082031 5.953125 2.4375 L 6.890625 0.03125 Z M 0.03125 -17.109375 "/></g></g></g><g clip-path="url(#4a656bef35)"><g transform="matrix(1, 0, 0, 1, 75, 1142)"><g clip-path="url(#a5992646e1)"><g clip-path="url(#e1fe923a70)"><path fill="#34495e" d="M 0.339844 0.34375 L 1532.734375 0.34375 L 1532.734375 6.339844 L 0.339844 6.339844 Z M 0.339844 0.34375 " fill-opacity="1" fill-rule="nonzero"/></g></g></g></g></g></g></g></svg>